<?xml version="1.0" encoding="UTF-8"?>
<svg version="1.1" xmlns="http://www.w3.org/2000/svg" width="1002" height="312">
<path d="M0 0 C330.66 0 661.32 0 1002 0 C1002 102.96 1002 205.92 1002 312 C671.34 312 340.68 312 0 312 C0 209.04 0 106.08 0 0 Z " fill="#FEFEFE" transform="translate(0,0)"/>
<path d="M0 0 C2.55786133 1.22753906 2.55786133 1.22753906 5.08203125 2.765625 C6.01466797 3.32636719 6.94730469 3.88710937 7.90820312 4.46484375 C9.34583008 5.34849609 9.34583008 5.34849609 10.8125 6.25 C13.64272486 7.96470397 16.47474392 9.67620716 19.31103516 11.38085938 C21.05763577 12.43256223 22.79738153 13.49576531 24.52880859 14.57226562 C25.30691895 15.03826172 26.0850293 15.50425781 26.88671875 15.984375 C27.56307373 16.39913086 28.23942871 16.81388672 28.9362793 17.24121094 C31.70656724 18.25979072 33.19650209 17.86170785 36 17 C38.49083818 15.87835133 38.49083818 15.87835133 40.984375 14.453125 C41.92023438 13.9375 42.85609375 13.421875 43.8203125 12.890625 C44.78710938 12.34921875 45.75390625 11.8078125 46.75 11.25 C47.70132813 10.7240625 48.65265625 10.198125 49.6328125 9.65625 C50.57382813 9.13546875 51.51484375 8.6146875 52.484375 8.078125 C53.41314453 7.56572266 54.34191406 7.05332031 55.29882812 6.52539062 C57.05081223 5.53601999 58.78562705 4.51535595 60.49804688 3.45898438 C66.17621048 0.01781733 66.17621048 0.01781733 70.0703125 -0.06640625 C73.88172319 1.32094724 77.34256773 3.08141572 80.875 5.0625 C83.22625 6.361875 85.5775 7.66125 88 9 C88 16.92 88 24.84 88 33 C85.89625 34.155 83.7925 35.31 81.625 36.5 C80.9645166 36.86544922 80.3040332 37.23089844 79.62353516 37.60742188 C75.22222222 40 75.22222222 40 73 40 C75.5988655 43.03656917 78.62071728 44.46163739 82.1875 46.1875 C84.105625 47.115625 86.02375 48.04375 88 49 C88 56.92 88 64.84 88 73 C81.07 76.96 81.07 76.96 74 81 C78.74535599 84.74535599 78.74535599 84.74535599 88 89 C88 96.92 88 104.84 88 113 C86.31777344 113.93199219 84.63554687 114.86398438 82.90234375 115.82421875 C71.24884675 122.28597714 59.60389999 128.76192642 48 135.3125 C47.03441162 135.85672607 46.06882324 136.40095215 45.07397461 136.96166992 C44.18331299 137.46545166 43.29265137 137.9692334 42.375 138.48828125 C41.21097656 139.14630737 41.21097656 139.14630737 40.0234375 139.81762695 C38.31199541 140.81768897 36.64929874 141.9004675 35 143 C30.47252316 142.69247033 27.23092843 141.29722538 23.31640625 139.078125 C22.23415771 138.47049316 21.15190918 137.86286133 20.03686523 137.23681641 C18.87864199 136.57472179 17.72052245 135.91244574 16.5625 135.25 C15.36772745 134.57519656 14.17249034 133.901215 12.97680664 133.22802734 C9.91477783 131.50148654 6.85866133 129.76475355 3.80383301 128.0255127 C0.93280788 126.39328138 -1.94387566 124.77110754 -4.8203125 123.1484375 C-9.58106285 120.46253141 -14.33757677 117.76930515 -19.09008789 115.06884766 C-20.37680618 114.34875911 -21.68116067 113.65941967 -23 113 C-23.30147353 99.57887997 -23.53232494 86.15856748 -23.67355824 72.73474884 C-23.7413528 66.5009843 -23.83326083 60.26953892 -23.98071289 54.03710938 C-24.12218063 48.01982443 -24.19973482 42.00476636 -24.23340416 35.98594666 C-24.25738922 33.69234648 -24.30423295 31.39886575 -24.37449074 29.10621643 C-24.8900448 11.5824768 -24.8900448 11.5824768 -21.72643661 7.25985718 C-18.2715527 4.1273739 -14.38672104 2.53759669 -10 1 C-9.26289795 0.61108582 -8.5257959 0.22217163 -7.76635742 -0.17852783 C-4.96163857 -1.48290624 -2.92770597 -0.76145986 0 0 Z " fill="#60174C" transform="translate(155,86)"/>
<path d="M0 0 C0.84498047 -0.00128906 1.68996094 -0.00257812 2.56054688 -0.00390625 C3.44935547 -0.00003906 4.33816406 0.00382812 5.25390625 0.0078125 C6.13884766 0.00394531 7.02378906 0.00007813 7.93554688 -0.00390625 C8.78181641 -0.00261719 9.62808594 -0.00132813 10.5 0 C11.27915771 0.00112793 12.05831543 0.00225586 12.86108398 0.00341797 C14.81640625 0.1328125 14.81640625 0.1328125 16.81640625 1.1328125 C16.81640625 26.5428125 16.81640625 51.9528125 16.81640625 78.1328125 C31.99640625 78.1328125 47.17640625 78.1328125 62.81640625 78.1328125 C63.14640625 75.1628125 63.47640625 72.1928125 63.81640625 69.1328125 C66.07980205 63.34338275 70.5114474 58.32333935 75.81640625 55.1328125 C86.90580936 50.29434664 98.27822844 49.51299201 109.81640625 53.1328125 C109.58682848 51.6919099 109.33184271 50.25504235 109.06640625 48.8203125 C108.85757813 47.61955078 108.85757813 47.61955078 108.64453125 46.39453125 C107.55306373 43.41358929 106.63669797 42.59586759 103.81640625 41.1328125 C101.18071544 40.75376666 98.88852883 40.56319692 96.25390625 40.5703125 C95.19187988 40.56632446 95.19187988 40.56632446 94.10839844 40.56225586 C88.13639274 40.73611239 84.00516285 42.5252944 79.05078125 45.91796875 C76.81640625 47.1328125 76.81640625 47.1328125 74.62109375 46.95703125 C71.17681771 45.38399609 70.15234903 41.8214952 68.56640625 38.5703125 C67.69914005 35.75169734 67.63238339 34.81352226 68.81640625 32.1328125 C71.328125 30.5 71.328125 30.5 74.50390625 29.0078125 C75.53902344 28.51023438 76.57414063 28.01265625 77.640625 27.5 C88.60315179 22.78058502 102.63448162 21.9231985 114.12890625 25.6953125 C121.86214403 29.21264886 127.09575363 34.33973541 130.77734375 41.96728516 C132.92398517 48.50707665 132.60472385 55.43984133 132.62890625 62.2578125 C132.65209353 63.80211799 132.67746753 65.34639226 132.70507812 66.890625 C132.76738628 70.63799716 132.80014989 74.38492427 132.81640625 78.1328125 C133.80640625 78.4628125 134.79640625 78.7928125 135.81640625 79.1328125 C135.81640625 85.0728125 135.81640625 91.0128125 135.81640625 97.1328125 C130.90025305 99.5908891 127.22277942 99.8235321 121.81640625 99.1328125 C117.05042643 96.83492937 115.55805691 94.99492059 113.81640625 90.1328125 C113.10355469 90.61492187 112.39070312 91.09703125 111.65625 91.59375 C102.0329982 97.94017447 94.4071491 100.2440609 82.81640625 99.1328125 C76.10166948 97.44401575 71.0492417 93.56243178 66.81640625 88.1328125 C66.48640625 87.1428125 66.15640625 86.1528125 65.81640625 85.1328125 C65.74292969 86.41478516 65.74292969 86.41478516 65.66796875 87.72265625 C65.59320312 88.82738281 65.5184375 89.93210937 65.44140625 91.0703125 C65.37179687 92.17246094 65.3021875 93.27460938 65.23046875 94.41015625 C65.02550781 95.75787109 65.02550781 95.75787109 64.81640625 97.1328125 C61.98811599 98.54695763 59.6175468 98.26007966 56.45483398 98.26220703 C55.802659 98.26395935 55.15048401 98.26571167 54.47854614 98.26751709 C52.31900384 98.27192487 50.15954316 98.26900174 48 98.265625 C46.50309737 98.26629827 45.00619485 98.26726848 43.5092926 98.26852417 C40.37117472 98.26999962 37.23308528 98.26785118 34.0949707 98.26318359 C30.06397715 98.25748147 26.0330501 98.26076932 22.00205898 98.26675606 C18.91123448 98.2703616 15.82042587 98.2692232 12.72960091 98.26662827 C11.24277806 98.26595923 9.7559538 98.2667866 8.26913261 98.26910782 C6.19557724 98.27163477 4.12213117 98.26779342 2.04858398 98.26220703 C0.8665892 98.26141144 -0.31540558 98.26061584 -1.53321838 98.25979614 C-4.18359375 98.1328125 -4.18359375 98.1328125 -5.18359375 97.1328125 C-5.28420645 94.1551988 -5.31974268 91.20074083 -5.31298828 88.22265625 C-5.3147406 87.28777374 -5.31649292 86.35289124 -5.31829834 85.38967896 C-5.32271849 82.28320488 -5.31977829 79.17678721 -5.31640625 76.0703125 C-5.31707924 73.92179351 -5.31804923 71.77327459 -5.31930542 69.62475586 C-5.32078261 65.11538978 -5.31862714 60.60604347 -5.31396484 56.09667969 C-5.30826755 50.30232673 -5.31154644 44.50802008 -5.31753731 38.71366882 C-5.32114234 34.27518359 -5.3200046 29.83670943 -5.31740952 25.39822388 C-5.31674009 23.26107783 -5.31756922 21.12393079 -5.31988907 18.98678589 C-5.32241465 16.00548624 -5.31857634 13.0242627 -5.31298828 10.04296875 C-5.31501251 9.15046417 -5.31703674 8.25795959 -5.31912231 7.33840942 C-5.29352904 0.00767416 -5.29352904 0.00767416 0 0 Z " fill="#4F2144" transform="translate(524.18359375,102.8671875)"/>
<path d="M0 0 C6.6 0 13.2 0 20 0 C21.65549134 4.94337413 23.31000799 9.88705402 24.9621582 14.83154297 C25.52312891 16.50946224 26.08464061 18.18720075 26.64672852 19.86474609 C35 44.79833333 35 44.79833333 35 50 C35.66 50 36.32 50 37 50 C37.14973267 48.57965454 37.14973267 48.57965454 37.30249023 47.13061523 C38.01022295 42.21039697 39.59436653 37.61391522 41.16015625 32.91015625 C41.62415077 31.4933683 41.62415077 31.4933683 42.09751892 30.04795837 C43.08040032 27.05098364 44.07131868 24.05673869 45.0625 21.0625 C45.73295548 19.02296179 46.40288306 16.98324997 47.07226562 14.94335938 C48.70776261 9.95985616 50.3541149 4.98012976 52 0 C64.87 0 77.74 0 91 0 C96.7191488 15.98227883 102.42201492 31.96791044 108 48 C111.89868071 35.98921156 115.67337049 23.96280589 119.04541016 11.79223633 C119.27405762 10.97263428 119.50270508 10.15303223 119.73828125 9.30859375 C119.93462158 8.59501709 120.13096191 7.88144043 120.33325195 7.14624023 C121.08755188 4.71817335 122.05572672 2.3606832 123 0 C129.27 0 135.54 0 142 0 C143.00360038 4.01440152 143.06451082 4.66682556 141.75927734 8.27319336 C141.46033569 9.11575684 141.16139404 9.95832031 140.85339355 10.82641602 C140.51763306 11.73834717 140.18187256 12.65027832 139.8359375 13.58984375 C139.49228149 14.55019531 139.14862549 15.51054687 138.79455566 16.5 C137.66499219 19.64964474 136.52045429 22.79360303 135.375 25.9375 C134.19615905 29.20163518 133.02018566 32.46679344 131.84451294 35.73207092 C131.04980974 37.9385423 130.25380108 40.14454392 129.45651245 42.3500824 C126.97078295 49.24100772 124.56112444 56.15288829 122.21875 63.09375 C121.64428299 64.78271512 121.06958282 66.47160096 120.49462891 68.16040039 C119.69181534 70.51933058 118.89418174 72.87923929 118.1149292 75.24606323 C114.68214697 85.65889273 111.19583603 95.05127941 101.4375 101.0625 C95.22727717 103.82895871 88.67058785 103.79811819 82 103 C80.02 102.01 80.02 102.01 78 101 C78 95.39 78 89.78 78 84 C81.28332681 83.1791683 82.87739714 82.96043101 86.0625 83.1875 C89.91657889 83.41061558 89.91657889 83.41061558 91.875 81.375 C94.84212788 75.11106336 95.66097746 70.6596291 93.26123047 63.92749023 C92.31535747 61.64201625 91.3231326 59.38256838 90.3125 57.125 C87.57643102 50.83897199 85.03461031 44.54863987 82.8125 38.0625 C80.79704334 32.19168068 78.60882168 26.44940317 76.16796875 20.73828125 C74.36974114 16.52236971 72.69080559 12.25980631 71 8 C67.55085452 16.08933636 64.37317662 24.239865 61.390625 32.51171875 C60.97834656 33.64656204 60.56606812 34.78140533 60.14129639 35.95063782 C58.84152153 39.52862796 57.5453117 43.10789188 56.25 46.6875 C54.52920482 51.44256128 52.80480555 56.19629191 51.078125 60.94921875 C50.68336975 62.04384933 50.2886145 63.13847992 49.88189697 64.26628113 C49.51771667 65.2685524 49.15353638 66.27082367 48.77832031 67.3034668 C48.45808899 68.18882614 48.13785767 69.07418549 47.80792236 69.9863739 C47 72 47 72 46 73 C44.43827255 73.08685603 42.87270656 73.10702219 41.30859375 73.09765625 C40.36435547 73.09443359 39.42011719 73.09121094 38.44726562 73.08789062 C37.45404297 73.07951172 36.46082031 73.07113281 35.4375 73.0625 C34.44041016 73.05798828 33.44332031 73.05347656 32.41601562 73.04882812 C29.94395151 73.03700007 27.47200482 73.02051849 25 73 C22.34782516 67.89168833 20.10501564 62.85361699 18.27734375 57.390625 C15.93635964 50.57984862 13.45027306 43.83643662 10.87890625 37.109375 C10.16444817 35.22796533 9.45025714 33.34645424 8.73632812 31.46484375 C7.64072911 28.57908102 6.54131187 25.69504344 5.4309082 22.81494141 C4.33948403 19.97984564 3.26408343 17.13910741 2.19140625 14.296875 C1.85508682 13.43543884 1.5187674 12.57400269 1.17225647 11.6864624 C0.72069435 10.47799652 0.72069435 10.47799652 0.26000977 9.24511719 C-0.0083519 8.54360535 -0.27671356 7.84209351 -0.5532074 7.11932373 C-1 5 -1 5 0 0 Z " fill="#4E1F43" transform="translate(660,128)"/>
<path d="M0 0 C1.29797012 -0.00315216 2.59594025 -0.00630432 3.9332428 -0.009552 C5.35580479 -0.00776236 6.77836647 -0.00571144 8.20092773 -0.00341797 C9.65298987 -0.00409125 11.1050519 -0.00506148 12.55711365 -0.00631714 C15.60107496 -0.00779251 18.64500694 -0.0056444 21.68896484 -0.00097656 C25.59889079 0.00472571 29.50874817 0.00143757 33.41867161 -0.00454903 C36.41684999 -0.00815466 39.41501198 -0.00701614 42.41319084 -0.00442123 C43.8553563 -0.00375223 45.29752322 -0.00457946 46.73968697 -0.00690079 C48.75093687 -0.00942785 50.76219197 -0.00489626 52.7734375 0 C53.9199025 0.00079559 55.06636749 0.00159119 56.24757385 0.00241089 C58.82202148 0.12939453 58.82202148 0.12939453 59.82202148 1.12939453 C59.92189123 3.97274501 59.9608003 6.78636616 59.94702148 9.62939453 C59.95088867 10.42732422 59.95475586 11.22525391 59.95874023 12.04736328 C59.94862916 18.00278686 59.94862916 18.00278686 58.82202148 19.12939453 C57.40977103 19.22226714 55.99293214 19.24686225 54.57763672 19.24291992 C53.67677841 19.24284439 52.7759201 19.24276886 51.84776306 19.24269104 C50.86860428 19.23752975 49.8894455 19.23236847 48.88061523 19.22705078 C47.88320816 19.22563583 46.88580109 19.22422089 45.85816956 19.22276306 C42.65859025 19.21714567 39.4590798 19.20459024 36.25952148 19.19189453 C34.09611103 19.18688177 31.93269949 19.18231848 29.76928711 19.17822266 C24.45348375 19.16801958 19.13783009 19.14844761 13.82202148 19.12939453 C13.82202148 25.72939453 13.82202148 32.32939453 13.82202148 39.12939453 C18.02758789 39.11199219 18.02758789 39.11199219 22.31811523 39.09423828 C25.0219715 39.0864482 27.72582654 39.08037116 30.4296875 39.07446289 C32.31445878 39.06942209 34.19922613 39.06258955 36.08398438 39.05395508 C38.78703784 39.04187836 41.49003979 39.03616385 44.19311523 39.03173828 C45.04103134 39.026577 45.88894745 39.02141571 46.76255798 39.01609802 C48.78273217 39.01590258 50.80280082 39.06733242 52.82202148 39.12939453 C54.64318151 40.95055456 53.95437228 43.43611217 53.95874023 45.85595703 C53.95487305 46.60619141 53.95100586 47.35642578 53.94702148 48.12939453 C53.95282227 49.25474609 53.95282227 49.25474609 53.95874023 50.40283203 C53.94863202 56.002784 53.94863202 56.002784 52.82202148 57.12939453 C49.93768328 57.21804661 47.07739991 57.24460749 44.19311523 57.22705078 C42.89676903 57.22492836 42.89676903 57.22492836 41.57423401 57.22276306 C38.80262856 57.21714692 36.03110268 57.20459172 33.25952148 57.19189453 C31.38517369 57.18688161 29.51082463 57.18231834 27.63647461 57.17822266 C23.03160127 57.16802134 18.42690088 57.1484492 13.82202148 57.12939453 C13.82202148 64.05939453 13.82202148 70.98939453 13.82202148 78.12939453 C17.13104492 78.11779297 20.44006836 78.10619141 23.84936523 78.09423828 C27.03971257 78.08644872 30.23005885 78.08037139 33.42041016 78.07446289 C35.6446988 78.06942136 37.86898411 78.06258831 40.09326172 78.05395508 C43.28280457 78.04188155 46.47230377 78.03616457 49.66186523 78.03173828 C51.16341408 78.02399635 51.16341408 78.02399635 52.69529724 78.01609802 C53.6161763 78.01602249 54.53705536 78.01594696 55.48583984 78.01586914 C56.30080429 78.01364853 57.11576874 78.01142792 57.95542908 78.00914001 C59.82202148 78.12939453 59.82202148 78.12939453 60.82202148 79.12939453 C60.92039358 80.45983078 60.95280741 81.79532797 60.95483398 83.12939453 C60.95612305 83.93376953 60.95741211 84.73814453 60.95874023 85.56689453 C60.95487305 86.41251953 60.95100586 87.25814453 60.94702148 88.12939453 C60.95088867 88.97501953 60.95475586 89.82064453 60.95874023 90.69189453 C60.95745117 91.49626953 60.95616211 92.30064453 60.95483398 93.12939453 C60.95370605 93.87189453 60.95257813 94.61439453 60.95141602 95.37939453 C60.82202148 97.12939453 60.82202148 97.12939453 59.82202148 98.12939453 C57.77718773 98.22878945 55.72888817 98.25739005 53.68164062 98.25878906 C52.36680191 98.26194122 51.0519632 98.26509338 49.69728088 98.26834106 C48.2505795 98.2665511 46.80387841 98.2645001 45.35717773 98.26220703 C43.88366174 98.26288017 42.41014586 98.26385028 40.93663025 98.2651062 C37.84381049 98.26658316 34.75101955 98.26442898 31.65820312 98.25976562 C27.68893414 98.25407331 23.71973284 98.25734418 19.75046635 98.26333809 C16.70592232 98.266948 13.6613944 98.26580304 10.6168499 98.2632103 C9.15318227 98.26254196 7.68951318 98.2633662 6.22584724 98.26568985 C4.18116406 98.26822281 2.13647578 98.2636792 0.09179688 98.25878906 C-1.07322861 98.25799347 -2.23825409 98.25719788 -3.43858337 98.25637817 C-6.17797852 98.12939453 -6.17797852 98.12939453 -8.17797852 97.12939453 C-8.17797852 65.44939453 -8.17797852 33.76939453 -8.17797852 1.12939453 C-5.39344069 -0.26287438 -3.11538516 0.00216043 0 0 Z " fill="#4E1F43" transform="translate(303.177978515625,102.87060546875)"/>
<path d="M0 0 C0.99451172 -0.02449219 1.98902344 -0.04898438 3.01367188 -0.07421875 C12.97077601 -0.11344569 19.79316592 2.88818184 27.03125 9.65234375 C32.73743437 15.58731382 33.90230369 22.83628153 34.1015625 30.83984375 C34.12092865 31.51801651 34.1402948 32.19618927 34.1602478 32.89491272 C34.21941999 35.03398566 34.26617519 37.17311428 34.3125 39.3125 C34.35073745 40.77411036 34.38979242 42.23569957 34.4296875 43.69726562 C34.52506819 47.25631543 34.60932567 50.81552587 34.6875 54.375 C36.1725 54.87 36.1725 54.87 37.6875 55.375 C37.6875 61.645 37.6875 67.915 37.6875 74.375 C31.32681478 75.64713704 26.19810313 76.6074779 20.25 73.6875 C17.56318764 71.26281567 16.87530261 69.70637198 15.6875 66.375 C15.130625 66.77332031 14.57375 67.17164063 14 67.58203125 C4.31763582 74.304078 -3.29870479 76.78043836 -15.3125 75.375 C-22.69471285 73.21142066 -28.06905819 68.74016271 -32.3125 62.375 C-35.09928991 56.58633238 -35.42950232 50.28116381 -33.66015625 44.09375 C-30.20916853 36.39197483 -24.07170694 32.36585207 -16.5234375 29.13671875 C-11.647729 27.45692519 -7.08223166 27.2135889 -1.9375 27.1875 C-0.03871094 27.16623047 -0.03871094 27.16623047 1.8984375 27.14453125 C5.87073775 27.38614539 8.92784042 28.14606735 12.6875 29.375 C12.28832968 27.93254362 11.86735483 26.49611159 11.4375 25.0625 C11.20546875 24.26199219 10.9734375 23.46148437 10.734375 22.63671875 C9.42652103 19.81116857 8.43742415 18.84224141 5.6875 17.375 C-3.73062298 15.91473814 -10.66486115 17.18328667 -18.82421875 22.16015625 C-21.3125 23.375 -21.3125 23.375 -23.46875 23.359375 C-26.11684482 21.94556167 -26.82776688 20.23926804 -28.125 17.5625 C-28.56457031 16.68980469 -29.00414062 15.81710938 -29.45703125 14.91796875 C-30.3125 12.375 -30.3125 12.375 -30.3046875 10.24609375 C-28.76592974 7.34426318 -26.55359303 6.62604248 -23.625 5.25 C-22.58988281 4.75242188 -21.55476562 4.25484375 -20.48828125 3.7421875 C-13.40179232 0.69142351 -7.66555272 0.00982134 0 0 Z " fill="#4E2043" transform="translate(835.3125,126.625)"/>
<path d="M0 0 C1.38481567 0.01244751 1.38481567 0.01244751 2.79760742 0.02514648 C12.56596069 0.26718046 20.68418516 2.24011522 27.77783203 9.3425293 C35.40776119 17.99603474 35.39873908 27.63426971 35.4375 38.5625 C35.46068728 40.10680549 35.48606128 41.65107976 35.51367188 43.1953125 C35.57598003 46.94268466 35.60874364 50.68961177 35.625 54.4375 C37.11 54.9325 37.11 54.9325 38.625 55.4375 C38.625 61.3775 38.625 67.3175 38.625 73.4375 C33.7088468 75.8955766 30.03137317 76.1282196 24.625 75.4375 C19.85902018 73.13961687 18.36665066 71.29960809 16.625 66.4375 C15.91214844 66.91960937 15.19929688 67.40171875 14.46484375 67.8984375 C4.71559845 74.32795324 -3.88432155 77.23435823 -15.64453125 75.0078125 C-22.46509947 72.82845934 -28.24369587 67.88741543 -31.875 61.75 C-34.14918675 56.46405242 -34.33864047 51.06367782 -33.375 45.4375 C-30.26059139 37.99247213 -24.42101725 33.05983967 -17.390625 29.40625 C-7.72865829 25.48334622 3.80438561 26.68083631 13.625 29.4375 C12.64284182 23.61872972 12.64284182 23.61872972 9.25 19 C4.58370263 16.22244204 0.02204387 15.75479702 -5.375 16.4375 C-9.97400022 17.85150007 -14.18025524 19.68429134 -18.25 22.25 C-20.375 23.4375 -20.375 23.4375 -22.37109375 23.28125 C-24.375 22.4375 -24.375 22.4375 -25.60546875 20.51171875 C-26.07919922 19.33029297 -26.07919922 19.33029297 -26.5625 18.125 C-26.88605469 17.34511719 -27.20960938 16.56523437 -27.54296875 15.76171875 C-28.29341884 13.66539105 -28.88344527 11.60729208 -29.375 9.4375 C-27.90339405 8.48817591 -26.42216726 7.55376445 -24.9375 6.625 C-24.11378906 6.10292969 -23.29007812 5.58085937 -22.44140625 5.04296875 C-15.04267101 1.16923603 -8.31474765 -0.09639187 0 0 Z " fill="#4F2044" transform="translate(471.375,126.5625)"/>
<path d="M0 0 C0.83724609 -0.01224609 1.67449219 -0.02449219 2.53710938 -0.03710938 C3.73883789 -0.04000977 3.73883789 -0.04000977 4.96484375 -0.04296875 C5.70210693 -0.04707764 6.43937012 -0.05118652 7.19897461 -0.05541992 C9.0625 0.1875 9.0625 0.1875 11.0625 2.1875 C11.3409729 4.40213013 11.3409729 4.40213013 11.38134766 7.18798828 C11.40121735 8.22891632 11.42108704 9.26984436 11.44155884 10.34231567 C11.45311005 11.46942963 11.46466125 12.59654358 11.4765625 13.7578125 C11.49592865 14.90917694 11.5152948 16.06054138 11.5352478 17.24679565 C11.59517372 20.93528769 11.64148126 24.62381072 11.6875 28.3125 C11.72566777 30.80860759 11.76471878 33.30470185 11.8046875 35.80078125 C11.90088588 41.92956937 11.98589506 48.05843738 12.0625 54.1875 C13.18114672 53.0807366 14.29808446 51.97224572 15.41430664 50.86303711 C16.03648575 50.24593369 16.65866486 49.62883026 17.29969788 48.99302673 C19.53613003 46.70239071 21.52238844 44.26594061 23.5 41.75 C24.27601563 40.81671875 25.05203125 39.8834375 25.8515625 38.921875 C28.05091175 36.2894357 28.05091175 36.2894357 29.7109375 33.703125 C32.20165779 30.40555166 34.13803231 28.46382336 38.36474609 27.85693359 C44.27696298 27.50466537 50.16097936 27.74910132 56.0625 28.1875 C56.63232422 30.09155273 56.63232422 30.09155273 57.0625 32.1875 C55.9453125 33.72265625 55.9453125 33.72265625 54.1875 35.25 C50.12955126 39.01694047 46.74281558 43.1485915 43.2890625 47.46875 C40.72627567 50.59804761 37.99798171 53.53388216 35.1796875 56.43359375 C33.84428613 58.10882019 33.84428613 58.10882019 34.33300781 60.0480957 C35.13993523 62.41459668 36.18788419 64.12188213 37.6171875 66.171875 C38.14489746 66.93491943 38.67260742 67.69796387 39.21630859 68.48413086 C39.78430176 69.29374268 40.35229492 70.10335449 40.9375 70.9375 C41.5145166 71.7735376 42.0915332 72.6095752 42.68603516 73.47094727 C45.55684838 77.62540952 48.46121023 81.75332356 51.40625 85.85546875 C51.91816895 86.57702148 52.43008789 87.29857422 52.95751953 88.04199219 C53.92665136 89.40600287 54.90645771 90.76250653 55.89794922 92.11035156 C57.2109375 93.96484375 57.2109375 93.96484375 59.0625 97.1875 C58.67822266 99.38891602 58.67822266 99.38891602 58.0625 101.1875 C40.47643369 102.80546788 40.47643369 102.80546788 35.52734375 99.48828125 C33.73212836 96.81971783 32.43278245 94.09802241 31.0625 91.1875 C29.36672684 88.49008923 27.5542703 85.87563621 25.75 83.25 C24.89719664 81.97174499 24.04678642 80.69188886 23.19921875 79.41015625 C21.82283742 77.33426119 20.44411175 75.25991763 19.0625 73.1875 C16.16830625 74.4848972 14.05371927 75.69655657 12.0625 78.1875 C11.57523773 80.58245785 11.57523773 80.58245785 11.5859375 83.2578125 C11.53953125 84.72541016 11.53953125 84.72541016 11.4921875 86.22265625 C11.47414063 87.24230469 11.45609375 88.26195312 11.4375 89.3125 C11.3867211 91.33603936 11.33223946 93.35949039 11.2734375 95.3828125 C11.24709229 96.72883545 11.24709229 96.72883545 11.22021484 98.10205078 C11.0625 100.1875 11.0625 100.1875 10.0625 101.1875 C8.65901265 101.28610131 7.25069523 101.31828937 5.84375 101.3203125 C4.56951172 101.32224609 4.56951172 101.32224609 3.26953125 101.32421875 C2.37621094 101.32035156 1.48289062 101.31648438 0.5625 101.3125 C-0.33082031 101.31636719 -1.22414063 101.32023437 -2.14453125 101.32421875 C-2.99402344 101.32292969 -3.84351563 101.32164062 -4.71875 101.3203125 C-5.50314453 101.31918457 -6.28753906 101.31805664 -7.09570312 101.31689453 C-8.9375 101.1875 -8.9375 101.1875 -9.9375 100.1875 C-10.03815628 97.11831812 -10.07364443 94.07159724 -10.06689453 91.00195312 C-10.06864685 90.03780991 -10.07039917 89.07366669 -10.07220459 88.08030701 C-10.07662493 84.87643664 -10.07368447 81.67262098 -10.0703125 78.46875 C-10.07098549 76.25297027 -10.07195547 74.03719061 -10.07321167 71.82141113 C-10.07468889 67.17080993 -10.07253331 62.52022789 -10.06787109 57.86962891 C-10.0621738 51.89367396 -10.06545267 45.91776391 -10.07144356 39.94181061 C-10.07504852 35.36435606 -10.07391088 30.78691225 -10.07131577 26.2094574 C-10.07064632 24.00532526 -10.07147554 21.80119217 -10.07379532 19.59706116 C-10.07632078 16.52236328 -10.07248275 13.44773922 -10.06689453 10.37304688 C-10.06891876 9.45249008 -10.07094299 8.53193329 -10.07302856 7.58348083 C-10.04359821 -1.10977406 -7.92943681 0.0060762 0 0 Z " fill="#4E1F43" transform="translate(381.9375,99.8125)"/>
<path d="M0 0 C0.84498047 -0.00128906 1.68996094 -0.00257812 2.56054688 -0.00390625 C3.44935547 -0.00003906 4.33816406 0.00382812 5.25390625 0.0078125 C6.13884766 0.00394531 7.02378906 0.00007813 7.93554688 -0.00390625 C8.78181641 -0.00261719 9.62808594 -0.00132813 10.5 0 C11.27915771 0.00112793 12.05831543 0.00225586 12.86108398 0.00341797 C14.81640625 0.1328125 14.81640625 0.1328125 16.81640625 1.1328125 C16.81640625 26.5428125 16.81640625 51.9528125 16.81640625 78.1328125 C31.99640625 78.1328125 47.17640625 78.1328125 62.81640625 78.1328125 C62.32140625 79.6178125 62.32140625 79.6178125 61.81640625 81.1328125 C62.47640625 81.4628125 63.13640625 81.7928125 63.81640625 82.1328125 C63.8432572 84.61205051 63.86317172 87.0910009 63.87890625 89.5703125 C63.88728516 90.27736328 63.89566406 90.98441406 63.90429688 91.71289062 C63.91294213 93.51974809 63.86860636 95.32668853 63.81640625 97.1328125 C61.97957403 98.96964472 59.02985153 98.26055443 56.56835938 98.26220703 C55.91633041 98.26395935 55.26430145 98.26571167 54.59251404 98.26751709 C52.42753472 98.27193454 50.26263646 98.26899801 48.09765625 98.265625 C46.59932438 98.26629807 45.10099262 98.26726812 43.60266113 98.26852417 C40.45856692 98.270001 37.31450108 98.26784708 34.17041016 98.26318359 C30.13154086 98.2574863 26.09273801 98.26076539 22.05387115 98.26675606 C18.95875545 98.27036208 15.8636556 98.26922289 12.76853943 98.26662827 C11.2789255 98.26595911 9.78931015 98.26678702 8.29969788 98.26910782 C6.2212439 98.27163503 4.14289894 98.26779283 2.06445312 98.26220703 C0.28693665 98.26101364 0.28693665 98.26101364 -1.52648926 98.25979614 C-4.18359375 98.1328125 -4.18359375 98.1328125 -5.18359375 97.1328125 C-5.28420645 94.1551988 -5.31974268 91.20074083 -5.31298828 88.22265625 C-5.3147406 87.28777374 -5.31649292 86.35289124 -5.31829834 85.38967896 C-5.32271849 82.28320488 -5.31977829 79.17678721 -5.31640625 76.0703125 C-5.31707924 73.92179351 -5.31804923 71.77327459 -5.31930542 69.62475586 C-5.32078261 65.11538978 -5.31862714 60.60604347 -5.31396484 56.09667969 C-5.30826755 50.30232673 -5.31154644 44.50802008 -5.31753731 38.71366882 C-5.32114234 34.27518359 -5.3200046 29.83670943 -5.31740952 25.39822388 C-5.31674009 23.26107783 -5.31756922 21.12393079 -5.31988907 18.98678589 C-5.32241465 16.00548624 -5.31857634 13.0242627 -5.31298828 10.04296875 C-5.31501251 9.15046417 -5.31703674 8.25795959 -5.31912231 7.33840942 C-5.29352904 0.00767416 -5.29352904 0.00767416 0 0 Z " fill="#4F2045" transform="translate(524.18359375,102.8671875)"/>
<path d="M0 0 C1.94874821 0.94024737 3.86262346 1.95453154 5.74609375 3.01953125 C6.83083984 3.62990234 7.91558594 4.24027344 9.03320312 4.86914062 C10.15662109 5.51044922 11.28003906 6.15175781 12.4375 6.8125 C13.55705078 7.44220703 14.67660156 8.07191406 15.83007812 8.72070312 C24.52327118 13.63738738 24.52327118 13.63738738 27.99243164 16.27612305 C30.85534383 18.2595838 30.85534383 18.2595838 33.99389648 17.94091797 C37.2812577 16.91196563 40.07608009 15.60095117 43.09765625 13.9453125 C44.22880859 13.33042969 45.35996094 12.71554688 46.52539062 12.08203125 C47.70448581 11.42979365 48.88352177 10.77744898 50.0625 10.125 C51.24502038 9.47969424 52.42795992 8.83515594 53.61132812 8.19140625 C59.72947244 4.87375023 59.72947244 4.87375023 65.6887207 1.28491211 C68 0 68 0 70.9453125 0.12109375 C74.24272162 1.06983678 76.90076916 2.35775793 79.875 4.0625 C80.84179688 4.61035156 81.80859375 5.15820312 82.8046875 5.72265625 C83.52914062 6.14417969 84.25359375 6.56570312 85 7 C85 7.66 85 8.32 85 9 C83.47005208 9.85677083 81.94010417 10.71354167 80.41015625 11.5703125 C79.40952148 12.13097412 78.40888672 12.69163574 77.37792969 13.26928711 C75.14916325 14.51677265 72.91932671 15.76234806 70.68847656 17.00610352 C65.33411629 19.99455747 59.9887215 22.99333017 54.68650818 26.07354736 C52.9751373 27.06698572 51.2599325 28.05380998 49.54467773 29.04052734 C47.37733944 30.28841312 45.2164487 31.54757631 43.06274414 32.81884766 C41.58535767 33.66455322 41.58535767 33.66455322 40.078125 34.52734375 C38.78503418 35.28132446 38.78503418 35.28132446 37.46582031 36.05053711 C34.43519781 37.2174768 33.06284958 36.99949753 30 36 C27.7019043 34.9152832 27.7019043 34.9152832 25.32421875 33.55078125 C24.42453369 33.0388623 23.52484863 32.52694336 22.59790039 31.99951172 C21.63746826 31.44279785 20.67703613 30.88608398 19.6875 30.3125 C18.69161865 29.74031738 17.6957373 29.16813477 16.66967773 28.57861328 C14.54924708 27.35857605 12.43056201 26.13550083 10.31347656 24.90966797 C6.9359553 22.96308889 3.54379658 21.04417502 0.1484375 19.12890625 C-2.04726088 17.87828141 -4.24258431 16.626998 -6.4375 15.375 C-8.01881714 14.48808472 -8.01881714 14.48808472 -9.63208008 13.58325195 C-11.08070435 12.7492688 -11.08070435 12.7492688 -12.55859375 11.8984375 C-13.41767334 11.41036621 -14.27675293 10.92229492 -15.16186523 10.41943359 C-15.76844971 9.95102051 -16.37503418 9.48260742 -17 9 C-17 8.01 -17 7.02 -17 6 C-14.55078125 4.140625 -14.55078125 4.140625 -11.3125 2.25 C-10.25675781 1.61578125 -9.20101562 0.9815625 -8.11328125 0.328125 C-4.54303659 -1.19494048 -3.63417039 -1.0525575 0 0 Z " fill="#FBF7FA" transform="translate(154,88)"/>
<path d="M0 0 C2.13037332 0.96494952 4.23456409 1.98928035 6.3125 3.0625 C7.91544922 3.88427734 7.91544922 3.88427734 9.55078125 4.72265625 C10.35902344 5.14417969 11.16726562 5.56570312 12 6 C12 6.66 12 7.32 12 8 C11.42894531 8.32049316 10.85789062 8.64098633 10.26953125 8.97119141 C-2.31188475 16.03948692 -14.83738777 23.19290625 -27.27929688 30.50439453 C-28.23255859 31.06368652 -29.18582031 31.62297852 -30.16796875 32.19921875 C-31.00610107 32.69252686 -31.8442334 33.18583496 -32.70776367 33.6940918 C-33.46420166 34.1250415 -34.22063965 34.55599121 -35 35 C-35.65653564 35.40839111 -36.31307129 35.81678223 -36.98950195 36.23754883 C-39.74895872 37.28403134 -41.19838281 36.87998164 -44 36 C-45.89051905 35.05096767 -47.74329688 34.02476823 -49.5625 32.9453125 C-50.60664063 32.33042969 -51.65078125 31.71554688 -52.7265625 31.08203125 C-53.80679688 30.43621094 -54.88703125 29.79039062 -56 29.125 C-57.08023438 28.48691406 -58.16046875 27.84882813 -59.2734375 27.19140625 C-63.85991839 24.47915397 -68.43192968 21.74312208 -73 19 C-69.34104836 14.50946844 -64.39061082 11.90611998 -59 10 C-55.49391563 10.3729877 -53.3875673 11.77573999 -50.3671875 13.5234375 C-49.40039062 14.07257813 -48.43359375 14.62171875 -47.4375 15.1875 C-46.52871094 15.73792969 -45.61992187 16.28835937 -44.68359375 16.85546875 C-41.44997933 18.23457941 -40.33830145 17.92065541 -37 17 C-34.52590537 15.89459657 -34.52590537 15.89459657 -32.05078125 14.48828125 C-31.11943359 13.97716797 -30.18808594 13.46605469 -29.22851562 12.93945312 C-28.26623047 12.40255859 -27.30394531 11.86566406 -26.3125 11.3125 C-24.89807617 10.53616211 -24.89807617 10.53616211 -23.45507812 9.74414062 C-17.91833106 6.6884651 -12.54302848 3.49939031 -7.27807617 -0.00708008 C-4.38788969 -1.26679377 -2.97289297 -0.92280914 0 0 Z " fill="#FAF6F9" transform="translate(228,130)"/>
<path d="M0 0 C1.010625 0.53625 2.02125 1.0725 3.0625 1.625 C4.8539436 2.5004566 6.64562597 3.37542474 8.4375 4.25 C9.98116216 5.03776859 11.52351439 5.82813394 13.0625 6.625 C13.0625 7.285 13.0625 7.945 13.0625 8.625 C12.37027344 9.0060791 11.67804688 9.3871582 10.96484375 9.77978516 C8.27265486 11.26377004 5.58178104 12.75010533 2.89190674 14.23828125 C1.67411314 14.91175893 0.4559742 15.58461254 -0.76251221 16.25683594 C-7.53655357 19.9964678 -14.2659553 23.78710469 -20.8984375 27.7734375 C-21.97996094 28.42103027 -23.06148437 29.06862305 -24.17578125 29.73583984 C-26.23542276 30.97630575 -28.28781957 32.22889693 -30.33203125 33.49462891 C-31.72615234 34.3326001 -31.72615234 34.3326001 -33.1484375 35.1875 C-33.95587402 35.68378906 -34.76331055 36.18007812 -35.59521484 36.69140625 C-38.5442926 37.86685688 -39.94135745 37.59053234 -42.9375 36.625 C-45.09057617 35.59692383 -45.09057617 35.59692383 -47.23046875 34.33203125 C-48.41709106 33.63775024 -48.41709106 33.63775024 -49.62768555 32.92944336 C-50.45179932 32.43710205 -51.27591309 31.94476074 -52.125 31.4375 C-52.96909424 30.93935791 -53.81318848 30.44121582 -54.68286133 29.92797852 C-56.35019712 28.94285868 -58.01586003 27.95490093 -59.6796875 26.96386719 C-61.57985652 25.83708011 -63.48789068 24.72818636 -65.40625 23.6328125 C-66.3034375 23.11460937 -67.200625 22.59640625 -68.125 22.0625 C-68.88167969 21.62808594 -69.63835937 21.19367188 -70.41796875 20.74609375 C-70.91941406 20.37613281 -71.42085937 20.00617188 -71.9375 19.625 C-71.9375 18.965 -71.9375 18.305 -71.9375 17.625 C-69.74037871 16.39100037 -67.53386099 15.18889743 -65.3125 14 C-64.69503906 13.649375 -64.07757813 13.29875 -63.44140625 12.9375 C-60.27425964 11.27058073 -58.41727066 10.53865344 -54.85546875 11.1796875 C-50.63976022 13.26778945 -46.77326013 15.78772053 -42.83984375 18.359375 C-40.0634617 19.94806749 -40.0634617 19.94806749 -37.58129883 18.88305664 C-34.89661421 17.60554442 -32.31656184 16.23553191 -29.734375 14.76171875 C-28.75339844 14.20419922 -27.77242187 13.64667969 -26.76171875 13.07226562 C-25.74722656 12.49154297 -24.73273438 11.91082031 -23.6875 11.3125 C-20.70756649 9.61489917 -17.72720316 7.91811336 -14.74438477 6.22558594 C-12.92368372 5.18735718 -11.1086534 4.1390953 -9.30053711 3.07910156 C-8.50397705 2.61858398 -7.70741699 2.15806641 -6.88671875 1.68359375 C-5.84390747 1.07149048 -5.84390747 1.07149048 -4.7800293 0.44702148 C-2.9375 -0.375 -2.9375 -0.375 0 0 Z " fill="#FAF6FA" transform="translate(226.9375,169.375)"/>
<path d="M0 0 C2.55786133 1.22753906 2.55786133 1.22753906 5.08203125 2.765625 C6.01466797 3.32636719 6.94730469 3.88710937 7.90820312 4.46484375 C9.34583008 5.34849609 9.34583008 5.34849609 10.8125 6.25 C13.64272486 7.96470397 16.47474392 9.67620716 19.31103516 11.38085938 C21.05763577 12.43256223 22.79738153 13.49576531 24.52880859 14.57226562 C25.30691895 15.03826172 26.0850293 15.50425781 26.88671875 15.984375 C27.56307373 16.39913086 28.23942871 16.81388672 28.9362793 17.24121094 C31.70656724 18.25979072 33.19650209 17.86170785 36 17 C38.49083818 15.87835133 38.49083818 15.87835133 40.984375 14.453125 C41.92023438 13.9375 42.85609375 13.421875 43.8203125 12.890625 C44.78710938 12.34921875 45.75390625 11.8078125 46.75 11.25 C47.70132813 10.7240625 48.65265625 10.198125 49.6328125 9.65625 C50.57382813 9.13546875 51.51484375 8.6146875 52.484375 8.078125 C53.41314453 7.56572266 54.34191406 7.05332031 55.29882812 6.52539062 C57.05081223 5.53601999 58.78562705 4.51535595 60.49804688 3.45898438 C66.19062308 0.00908278 66.19062308 0.00908278 70.1328125 -0.03515625 C73.58623349 1.21165106 76.67269431 2.76528762 79.875 4.5625 C81.02742188 5.20316406 82.17984375 5.84382813 83.3671875 6.50390625 C84.23601562 6.99761719 85.10484375 7.49132812 86 8 C85.34 8.99 84.68 9.98 84 11 C84 10.34 84 9.68 84 9 C83.34 8.7525 82.68 8.505 82 8.25 C79 7 79 7 77.09765625 5.94140625 C76.42605469 5.56886719 75.75445312 5.19632812 75.0625 4.8125 C74.43472656 4.44769531 73.80695313 4.08289063 73.16015625 3.70703125 C69.28530429 2.43877048 65.85486074 3.61670871 62.22680664 5.2434082 C61.29731201 5.75734131 60.36781738 6.27127441 59.41015625 6.80078125 C57.86231445 7.64866211 57.86231445 7.64866211 56.28320312 8.51367188 C55.22037109 9.10728516 54.15753906 9.70089844 53.0625 10.3125 C52.00353516 10.89451172 50.94457031 11.47652344 49.85351562 12.07617188 C44.29618158 15.1044406 44.29618158 15.1044406 38.86279297 18.34521484 C34.55677017 21.05468792 34.55677017 21.05468792 31.63623047 20.76782227 C28.7198322 19.91839899 26.39740087 18.74349046 23.76171875 17.234375 C22.28348633 16.39326172 22.28348633 16.39326172 20.77539062 15.53515625 C19.24688477 14.65150391 19.24688477 14.65150391 17.6875 13.75 C16.68009766 13.17636719 15.67269531 12.60273437 14.63476562 12.01171875 C9.53764322 9.09623115 4.51205397 6.12423997 -0.38012695 2.87475586 C-2.11633575 1.79180405 -2.11633575 1.79180405 -4.875 1.8125 C-8.80524229 3.30599207 -12.19343032 5.36477268 -15.73046875 7.625 C-18 9 -18 9 -21 10 C-20.89263091 23.13427653 -20.78002472 36.26849658 -20.66066074 49.40266991 C-20.60540631 55.50084979 -20.55198229 61.59903444 -20.50268555 67.69726562 C-20.45507917 73.57817497 -20.40273774 79.45902456 -20.34705925 85.33986282 C-20.32661878 87.58781072 -20.30790855 89.835775 -20.29092598 92.08375168 C-20.26691941 95.22304994 -20.23685974 98.36223451 -20.20532227 101.50146484 C-20.1995668 102.43869888 -20.19381134 103.37593292 -20.18788147 104.34156799 C-20.17319824 105.62043633 -20.17319824 105.62043633 -20.15821838 106.92514038 C-20.15176583 107.66810553 -20.14531328 108.41107067 -20.1386652 109.17654991 C-20.10804546 111.09899634 -20.10804546 111.09899634 -19 113 C-20.32 113 -21.64 113 -23 113 C-23.30147353 99.57887997 -23.53232494 86.15856748 -23.67355824 72.73474884 C-23.7413528 66.5009843 -23.83326083 60.26953892 -23.98071289 54.03710938 C-24.12218063 48.01982443 -24.19973482 42.00476636 -24.23340416 35.98594666 C-24.25738922 33.69234648 -24.30423295 31.39886575 -24.37449074 29.10621643 C-24.8900448 11.5824768 -24.8900448 11.5824768 -21.72643661 7.25985718 C-18.2715527 4.1273739 -14.38672104 2.53759669 -10 1 C-9.26289795 0.61108582 -8.5257959 0.22217163 -7.76635742 -0.17852783 C-4.96163857 -1.48290624 -2.92770597 -0.76145986 0 0 Z " fill="#5F4155" transform="translate(155,86)"/>
<path d="M0 0 C0.67160156 0.32097656 1.34320313 0.64195312 2.03515625 0.97265625 C2.39816967 3.98048172 2.64238378 6.05691718 2.03515625 8.97265625 C-0.71170104 12.43576396 -3.79128518 14.58147006 -7.96484375 15.97265625 C-13.04792839 16.45263793 -17.48064174 16.67110426 -22.15234375 14.47265625 C-24.21938401 11.62156623 -24.77105256 9.47854748 -24.48046875 5.9453125 C-23.77180484 3.23413618 -22.5612096 1.44304845 -20.27734375 -0.1875 C-14.21293356 -2.38994627 -6.00707008 -2.08150123 0 0 Z " fill="#F9F5F8" transform="translate(482.96484375,169.02734375)"/>
<path d="M0 0 C1.00933594 -0.01836914 1.00933594 -0.01836914 2.0390625 -0.03710938 C5.74361843 -0.04804802 8.47990643 0.14722135 11.625 2.1875 C11.98801342 5.19532547 12.23222753 7.27176093 11.625 10.1875 C8.87814271 13.65060771 5.79855857 15.79631381 1.625 17.1875 C-3.45808464 17.66748168 -7.89079799 17.88594801 -12.5625 15.6875 C-14.76053706 12.65572475 -15.09477212 10.77789467 -14.875 7.08984375 C-14.04846824 3.94514869 -12.06986477 2.79158618 -9.375 1.1875 C-6.37200345 -0.31399828 -3.29023309 0.00311575 0 0 Z " fill="#FAF6F9" transform="translate(836.375,167.8125)"/>
<path d="M0 0 C1.11890625 -0.01417969 2.2378125 -0.02835938 3.390625 -0.04296875 C6.82764584 0.19282687 9.54530445 0.95903337 12.75 2.1875 C13.11301342 5.19532547 13.35722753 7.27176093 12.75 10.1875 C10.00314271 13.65060771 6.92355857 15.79631381 2.75 17.1875 C-2.33308464 17.66748168 -6.76579799 17.88594801 -11.4375 15.6875 C-13.63553706 12.65572475 -13.96977212 10.77789467 -13.75 7.08984375 C-12.92346824 3.94514869 -10.94486477 2.79158618 -8.25 1.1875 C-5.45940838 -0.20779581 -3.11268312 0.01776646 0 0 Z " fill="#F9F5F9" transform="translate(622.25,167.8125)"/>
<path d="M0 0 C0.66 0 1.32 0 2 0 C1.99777939 1.28595062 1.99555878 2.57190125 1.99327087 3.89682007 C1.97303311 15.99286775 1.95802478 28.08891202 1.94818783 40.18497276 C1.94296062 46.40424681 1.9358659 52.62350723 1.92456055 58.84277344 C1.91372593 64.84034993 1.90772194 70.83791329 1.90512276 76.83549881 C1.90326955 79.12812126 1.89965092 81.42074295 1.89426994 83.71335983 C1.88705193 86.91487962 1.88600939 90.11634453 1.88647461 93.31787109 C1.88287933 94.27380661 1.87928406 95.22974213 1.87557983 96.21464539 C1.8769545 97.08405258 1.87832916 97.95345978 1.87974548 98.84921265 C1.87882369 99.60692648 1.8779019 100.36464031 1.87695217 101.14531517 C1.88612689 103.09477261 1.88612689 103.09477261 3 105 C1.68 105 0.36 105 -1 105 C-1.0231206 91.45735822 -1.04091364 77.9147211 -1.05181217 64.37206364 C-1.05704162 58.08437976 -1.06414039 51.79670934 -1.07543945 45.5090332 C-1.08626614 39.44662277 -1.09227637 33.38422531 -1.09487724 27.32180595 C-1.09673189 25.00323723 -1.10035325 22.68466926 -1.10573006 20.36610603 C-1.11293758 17.13085492 -1.11399106 13.89565817 -1.11352539 10.66040039 C-1.11712067 9.69151886 -1.12071594 8.72263733 -1.12442017 7.72439575 C-1.1230455 6.84794907 -1.12167084 5.97150238 -1.12025452 5.0684967 C-1.12117631 4.30248673 -1.1220981 3.53647676 -1.12304783 2.74725437 C-1 1 -1 1 0 0 Z " fill="#723E62" transform="translate(133,94)"/>
<path d="M0 0 C3.81275879 1.52510352 6.86017055 3.00757127 10.3125 5.125 C11.19550781 5.66382813 12.07851562 6.20265625 12.98828125 6.7578125 C13.65214844 7.16773438 14.31601563 7.57765625 15 8 C11.13389773 12.51723528 5.23427867 14.46728451 0 17 C0 11.39 0 5.78 0 0 Z " fill="#F7EAF4" transform="translate(152,130)"/>
<path d="M0 0 C1.423125 -0.061875 2.84625 -0.12375 4.3125 -0.1875 C5.51326172 -0.23970703 5.51326172 -0.23970703 6.73828125 -0.29296875 C9 0 9 0 10.8125 1.3125 C12 3 12 3 11.6875 6.1875 C11.460625 7.115625 11.23375 8.04375 11 9 C10.34 9 9.68 9 9 9 C9.99 11.31 10.98 13.62 12 16 C10.0625 15.25 10.0625 15.25 8 14 C7.25 11.875 7.25 11.875 7 10 C5.35 10 3.7 10 2 10 C2 11.98 2 13.96 2 16 C1.34 16 0.68 16 0 16 C0 10.72 0 5.44 0 0 Z " fill="#6A5D67" transform="translate(493,220)"/>
<path d="M0 0 C3.81275879 1.52510352 6.86017055 3.00757127 10.3125 5.125 C11.19550781 5.66382813 12.07851562 6.20265625 12.98828125 6.7578125 C13.65214844 7.16773438 14.31601563 7.57765625 15 8 C12.61753661 10.68125418 10.1454496 12.11423459 6.9375 13.6875 C5.62072266 14.34298828 5.62072266 14.34298828 4.27734375 15.01171875 C2 16 2 16 0 16 C0 10.72 0 5.44 0 0 Z " fill="#F1E5EF" transform="translate(152,170)"/>
<path d="M0 0 C8 0 8 0 11 2 C11.43132515 6.05445642 11.30019361 7.54970958 9 11 C9.80161791 13.67145537 9.80161791 13.67145537 11 16 C10.34 16 9.68 16 9 16 C8.566875 15.195625 8.13375 14.39125 7.6875 13.5625 C6.23212941 10.75717669 6.23212941 10.75717669 3.3125 10.1875 C2.549375 10.125625 1.78625 10.06375 1 10 C1 11.98 1 13.96 1 16 C0.67 16 0.34 16 0 16 C0 10.72 0 5.44 0 0 Z " fill="#4B3D48" transform="translate(686,220)"/>
<path d="M0 0 C1.423125 -0.061875 2.84625 -0.12375 4.3125 -0.1875 C5.51326172 -0.23970703 5.51326172 -0.23970703 6.73828125 -0.29296875 C9 0 9 0 10.8046875 1.31640625 C12 3 12 3 11.8125 6.125 C11.544375 7.07375 11.27625 8.0225 11 9 C8.04335481 10.4783226 5.25770263 10.06032783 2 10 C2 11.98 2 13.96 2 16 C1.34 16 0.68 16 0 16 C0 10.72 0 5.44 0 0 Z " fill="#70656D" transform="translate(335,220)"/>
<path d="M0 0 C3.32532111 2.69192661 4.52454943 6.06546515 6 10 C6 10.99 6 11.98 6 13 C6.66 13 7.32 13 8 13 C8.02708567 11.39592672 8.04643483 9.7917215 8.0625 8.1875 C8.07410156 7.29417969 8.08570313 6.40085938 8.09765625 5.48046875 C8.11009967 2.86586209 8.11009967 2.86586209 7 0 C7.66 0 8.32 0 9 0 C9.33 1.32 9.66 2.64 10 4 C10.66 4 11.32 4 12 4 C12.33 2.68 12.66 1.36 13 0 C13.66 0 14.32 0 15 0 C14.9278125 0.68707031 14.855625 1.37414062 14.78125 2.08203125 C14.6884375 2.98308594 14.595625 3.88414062 14.5 4.8125 C14.4071875 5.70582031 14.314375 6.59914062 14.21875 7.51953125 C13.95607599 10.08305099 13.95607599 10.08305099 14 13 C14.66 13 15.32 13 16 13 C16.103125 12.154375 16.20625 11.30875 16.3125 10.4375 C17.0828854 6.58557299 18.36274514 3.55924969 20 0 C20.66 0 21.32 0 22 0 C20.73130765 5.92056432 18.86034565 10.66068812 16 16 C15.34 16 14.68 16 14 16 C12.5393715 13.35261084 12 12.10551666 12 9 C11.34 9 10.68 9 10 9 C9.855625 9.78375 9.71125 10.5675 9.5625 11.375 C9 14 9 14 8 16 C7.34 16 6.68 16 6 16 C4.99303432 13.89915791 3.9946411 11.79420511 3 9.6875 C2.443125 8.51574219 1.88625 7.34398437 1.3125 6.13671875 C0 3 0 3 0 0 Z " fill="#6E636A" transform="translate(422,220)"/>
<path d="M0 0 C8.45767334 -0.02312659 16.91533356 -0.0409167 25.37303066 -0.05181217 C29.29988658 -0.05704031 33.22672094 -0.06413669 37.15356445 -0.07543945 C40.94014257 -0.0862708 44.7266999 -0.09227736 48.51329231 -0.09487724 C49.96104319 -0.09673105 51.40879288 -0.10035081 52.85653496 -0.10573006 C54.87757135 -0.11294367 56.89862848 -0.11340808 58.91967773 -0.11352539 C60.64842384 -0.11685631 60.64842384 -0.11685631 62.41209412 -0.12025452 C65 0 65 0 66 1 C66.07325168 3.86267567 66.09238205 6.700719 66.0625 9.5625 C66.05798828 10.36880859 66.05347656 11.17511719 66.04882812 12.00585938 C66.03700518 14.00393756 66.01906914 16.00197783 66 18 C64.515 17.505 64.515 17.505 63 17 C63 12.05 63 7.1 63 2 C55.08112861 1.97743021 47.16228211 1.959074 39.24338722 1.94818783 C35.56654289 1.94296368 31.88972166 1.9358745 28.21289062 1.92456055 C24.6662104 1.91371507 21.11955243 1.90771963 17.5728569 1.90512276 C16.21803817 1.90327151 14.86322069 1.89965662 13.50841141 1.89426994 C11.61450635 1.88703762 9.72057902 1.88659176 7.82666016 1.88647461 C6.74744293 1.884254 5.66822571 1.88203339 4.55630493 1.87974548 C2.00922654 1.82676584 2.00922654 1.82676584 0 3 C0 2.01 0 1.02 0 0 Z " fill="#492E45" transform="translate(297,103)"/>
<path d="M0 0 C4.42679007 1.47559669 4.91432696 3.90057368 7 8 C7 8.66 7 9.32 7 10 C7.66 10 8.32 10 9 10 C9.268125 9.278125 9.53625 8.55625 9.8125 7.8125 C10.99901362 5.00233617 12.27485639 2.51583443 14 0 C14.66 0 15.32 0 16 0 C16 5.28 16 10.56 16 16 C15.34 16 14.68 16 14 16 C13.67 12.7 13.34 9.4 13 6 C11.68 8.31 10.36 10.62 9 13 C8.34 13 7.68 13 7 13 C5.02 9.535 5.02 9.535 3 6 C2.67 9.3 2.34 12.6 2 16 C1.34 16 0.68 16 0 16 C0 10.72 0 5.44 0 0 Z " fill="#685C64" transform="translate(584,220)"/>
<path d="M0 0 C4.42679007 1.47559669 4.91432696 3.90057368 7 8 C7 8.66 7 9.32 7 10 C7.66 10 8.32 10 9 10 C9.268125 9.278125 9.53625 8.55625 9.8125 7.8125 C10.99901362 5.00233617 12.27485639 2.51583443 14 0 C14.66 0 15.32 0 16 0 C16 5.28 16 10.56 16 16 C15.34 16 14.68 16 14 16 C13.67 12.7 13.34 9.4 13 6 C11.68 8.31 10.36 10.62 9 13 C8.34 13 7.68 13 7 13 C5.02 9.535 5.02 9.535 3 6 C2.67 9.3 2.34 12.6 2 16 C1.34 16 0.68 16 0 16 C0 10.72 0 5.44 0 0 Z " fill="#695763" transform="translate(310,220)"/>
<path d="M0 0 C0.66 0 1.32 0 2 0 C3.0044134 2.2898234 4.00367612 4.5816599 5 6.875 C5.28617188 7.52597656 5.57234375 8.17695313 5.8671875 8.84765625 C8 13.7734375 8 13.7734375 8 16 C7.34 16 6.68 16 6 16 C5.67 14.35 5.34 12.7 5 11 C2.36 11 -0.28 11 -3 11 C-3.33 12.65 -3.66 14.3 -4 16 C-4.66 16 -5.32 16 -6 16 C-5.37183502 12.05050296 -4.1354471 8.80107972 -2.4375 5.1875 C-1.98246094 4.21167969 -1.52742187 3.23585937 -1.05859375 2.23046875 C-0.70925781 1.49441406 -0.35992188 0.75835937 0 0 Z " fill="#675B64" transform="translate(614,220)"/>
<path d="M0 0 C3 1 3 1 4.421875 3.6171875 C4.86015625 4.69226563 5.2984375 5.76734375 5.75 6.875 C6.19859375 7.94492188 6.6471875 9.01484375 7.109375 10.1171875 C8 13 8 13 7 16 C6.34 14.35 5.68 12.7 5 11 C2.36 11 -0.28 11 -3 11 C-3.33 12.65 -3.66 14.3 -4 16 C-4.66 16 -5.32 16 -6 16 C-4.25192871 10.53262809 -2.34205919 5.24175152 0 0 Z " fill="#665A62" transform="translate(358,220)"/>
<path d="M0 0 C0.66 0 1.32 0 2 0 C2 2.31 2 4.62 2 7 C4.97 7 7.94 7 11 7 C11 4.69 11 2.38 11 0 C11.66 0 12.32 0 13 0 C13 5.28 13 10.56 13 16 C12.34 16 11.68 16 11 16 C11 13.69 11 11.38 11 9 C8.03 9 5.06 9 2 9 C2 11.31 2 13.62 2 16 C1.34 16 0.68 16 0 16 C0 10.72 0 5.44 0 0 Z " fill="#71636C" transform="translate(452,220)"/>
<path d="M0 0 C3.63 0 7.26 0 11 0 C11 0.66 11 1.32 11 2 C8.03 2 5.06 2 2 2 C2 3.65 2 5.3 2 7 C4.64 7 7.28 7 10 7 C10 7.66 10 8.32 10 9 C7.36 9 4.72 9 2 9 C2 10.98 2 12.96 2 15 C4.97 15 7.94 15 11 15 C11 15.33 11 15.66 11 16 C7.37 16 3.74 16 0 16 C0 10.72 0 5.44 0 0 Z " fill="#70626B" transform="translate(513,220)"/>
<path d="M0 0 C4.95 2.31 9.9 4.62 15 7 C15 14.92 15 22.84 15 31 C14.67 31 14.34 31 14 31 C13.67 25.39 13.34 19.78 13 14 C11.35 13.67 9.7 13.34 8 13 C8 12.34 8 11.68 8 11 C9.32 10.67 10.64 10.34 12 10 C12 9.34 12 8.68 12 8 C11.175 7.7525 10.35 7.505 9.5 7.25 C5.47626529 5.81295189 1.78020976 3.97645485 -2 2 C-1.34 1.34 -0.68 0.68 0 0 Z " fill="#653C5B" transform="translate(228,128)"/>
<path d="M0 0 C3.63 0 7.26 0 11 0 C11 0.66 11 1.32 11 2 C8.03 2 5.06 2 2 2 C2 3.65 2 5.3 2 7 C4.31 7 6.62 7 9 7 C9 7.66 9 8.32 9 9 C6.69 9 4.38 9 2 9 C2 10.98 2 12.96 2 15 C4.97 15 7.94 15 11 15 C11 15.33 11 15.66 11 16 C7.37 16 3.74 16 0 16 C0 10.72 0 5.44 0 0 Z " fill="#6D6169" transform="translate(474,220)"/>
<path d="M0 0 C4.29 0 8.58 0 13 0 C13 0.66 13 1.32 13 2 C11.35 2 9.7 2 8 2 C8 6.62 8 11.24 8 16 C7.01 16 6.02 16 5 16 C5 11.38 5 6.76 5 2 C3.35 2 1.7 2 0 2 C0 1.34 0 0.68 0 0 Z " fill="#867D85" transform="translate(553,220)"/>
<path d="M0 0 C0 0.66 0 1.32 0 2 C-2.97 1.67 -5.94 1.34 -9 1 C-8.67 2.32 -8.34 3.64 -8 5 C-6.17252029 5.95021766 -6.17252029 5.95021766 -4 6.4375 C-1.8203125 7.1484375 -1.8203125 7.1484375 0 8 C1.125 10.5625 1.125 10.5625 1 13 C-1 15 -1 15 -2.875 15.23046875 C-3.57625 15.21628906 -4.2775 15.20210937 -5 15.1875 C-5.70125 15.18105469 -6.4025 15.17460937 -7.125 15.16796875 C-9 15 -9 15 -11 14 C-11 13.34 -11 12.68 -11 12 C-8.98177083 12.26041667 -6.96354167 12.52083333 -4.9453125 12.78125 C-2.99501656 13.0372485 -2.99501656 13.0372485 -1 13 C-1.44033992 11.01979579 -1.44033992 11.01979579 -3 9 C-5.5863924 7.73847391 -8.25200829 6.84356955 -11 6 C-11.1875 3.625 -11.1875 3.625 -11 1 C-6.8204355 -1.78637633 -4.85331323 -0.79562512 0 0 Z " fill="#675C64" transform="translate(716,221)"/>
<path d="M0 0 C3.3 0 6.6 0 10 0 C10 0.66 10 1.32 10 2 C7.36 2 4.72 2 2 2 C2 3.65 2 5.3 2 7 C4.31 7 6.62 7 9 7 C9 7.66 9 8.32 9 9 C6.36 9 3.72 9 1 9 C1 10.98 1 12.96 1 15 C3.97 15 6.94 15 10 15 C10 15.33 10 15.66 10 16 C6.7 16 3.4 16 0 16 C0 10.72 0 5.44 0 0 Z " fill="#695E66" transform="translate(667,220)"/>
<path d="M0 0 C2.33294775 -0.04241723 4.66702567 -0.04092937 7 0 C8 1 8 1 8.125 3.5 C8 6 8 6 7 7 C4.66702567 7.04092937 2.33294775 7.04241723 0 7 C0 4.69 0 2.38 0 0 Z " fill="#F2EBF1" transform="translate(687,222)"/>
<path d="M0 0 C4.29 0 8.58 0 13 0 C13 0.66 13 1.32 13 2 C11.02 2 9.04 2 7 2 C7 6.62 7 11.24 7 16 C6.34 16 5.68 16 5 16 C5 11.38 5 6.76 5 2 C3.35 2 1.7 2 0 2 C0 1.34 0 0.68 0 0 Z " fill="#736870" transform="translate(646,220)"/>
<path d="M0 0 C4.29 0 8.58 0 13 0 C13 0.66 13 1.32 13 2 C11.02 2 9.04 2 7 2 C7 6.62 7 11.24 7 16 C6.34 16 5.68 16 5 16 C5 11.38 5 6.76 5 2 C3.35 2 1.7 2 0 2 C0 1.34 0 0.68 0 0 Z " fill="#73646D" transform="translate(627,220)"/>
<path d="M0 0 C4.29 0 8.58 0 13 0 C13 0.66 13 1.32 13 2 C11.02 2 9.04 2 7 2 C7 6.62 7 11.24 7 16 C6.34 16 5.68 16 5 16 C5 11.38 5 6.76 5 2 C3.35 2 1.7 2 0 2 C0 1.34 0 0.68 0 0 Z " fill="#746571" transform="translate(393,220)"/>
<path d="M0 0 C2.31 0 4.62 0 7 0 C7.625 2.375 7.625 2.375 8 5 C6 7 6 7 2.875 7.125 C1.451875 7.063125 1.451875 7.063125 0 7 C0 4.69 0 2.38 0 0 Z " fill="#FEF7FD" transform="translate(495,222)"/>
<path d="M0 0 C2.31 0 4.62 0 7 0 C7.625 2.375 7.625 2.375 8 5 C6 7 6 7 2.875 7.125 C1.451875 7.063125 1.451875 7.063125 0 7 C0 4.69 0 2.38 0 0 Z " fill="#F6EFF5" transform="translate(337,222)"/>
<path d="M0 0 C0.99 0.33 1.98 0.66 3 1 C3 1.99 3 2.98 3 4 C1.2335343 5.0076952 -0.53833823 6.00591714 -2.3125 7 C-3.79169922 7.8353125 -3.79169922 7.8353125 -5.30078125 8.6875 C-8 10 -8 10 -11 10 C-11 10.66 -11 11.32 -11 12 C-11.66 12 -12.32 12 -13 12 C-13.33 11.01 -13.66 10.02 -14 9 C-9.38 6.69 -4.76 4.38 0 2 C0 1.34 0 0.68 0 0 Z " fill="#613652" transform="translate(166,177)"/>
<path d="M0 0 C0.81464578 3.08512399 1.19209571 5.86328804 1.25 9.0625 C1.27578125 9.91972656 1.3015625 10.77695313 1.328125 11.66015625 C1 14 1 14 -0.390625 15.80859375 C-2 17 -2 17 -4 17 C-4.33 18.32 -4.66 19.64 -5 21 C-6.33201473 18.33597054 -5.69751146 17.4413616 -4.78515625 14.6484375 C-4.51123047 13.79765625 -4.23730469 12.946875 -3.95507812 12.0703125 C-3.66052734 11.18085938 -3.36597656 10.29140625 -3.0625 9.375 C-2.77181641 8.4778125 -2.48113281 7.580625 -2.18164062 6.65625 C-1.46100166 4.43526435 -0.73354395 2.21675021 0 0 Z " fill="#603E58" transform="translate(779,140)"/>
<path d="M0 0 C0 0.99 0 1.98 0 3 C-1.29164063 2.64808594 -1.29164063 2.64808594 -2.609375 2.2890625 C-6.93006598 1.92070866 -8.62855896 3.07292818 -12.25 5.375 C-13.28640625 6.02210937 -14.3228125 6.66921875 -15.390625 7.3359375 C-16.68226563 8.15964844 -16.68226563 8.15964844 -18 9 C-18.99 9.495 -18.99 9.495 -20 10 C-19.88671875 8.23828125 -19.88671875 8.23828125 -19 6 C-16.26953125 4.04296875 -16.26953125 4.04296875 -12.8125 2.1875 C-11.68457031 1.56230469 -10.55664062 0.93710938 -9.39453125 0.29296875 C-5.6661947 -1.12714563 -3.79739996 -1.03146372 0 0 Z " fill="#64475A" transform="translate(155,86)"/>
<path d="M0 0 C0.33 0.99 0.66 1.98 1 3 C-1.1385485 5.1385485 -2.13275314 5.42655063 -5 6 C-5 6.99 -5 7.98 -5 9 C-4.34 9.33 -3.68 9.66 -3 10 C-3.33 10.66 -3.66 11.32 -4 12 C-7.465 10.02 -7.465 10.02 -11 8 C-11 7.34 -11 6.68 -11 6 C-7.37 4.02 -3.74 2.04 0 0 Z " fill="#F3E3F1" transform="translate(239,120)"/>
<path d="M0 0 C-1.07303744 2.50375404 -1.82520945 3.86823482 -4.03125 5.53125 C-7.03906389 9.30295313 -6.6737132 13.05489432 -6.75 17.75 C-6.77964844 18.63816406 -6.80929687 19.52632812 -6.83984375 20.44140625 C-6.91036918 22.62769449 -6.96314637 24.81292768 -7 27 C-7.33 27 -7.66 27 -8 27 C-8.02895225 23.70835171 -8.0467823 20.41673601 -8.0625 17.125 C-8.07506836 15.71927734 -8.07506836 15.71927734 -8.08789062 14.28515625 C-8.09111328 13.38925781 -8.09433594 12.49335938 -8.09765625 11.5703125 C-8.10289307 10.74289551 -8.10812988 9.91547852 -8.11352539 9.06298828 C-8 7 -8 7 -7 5 C-6.34 5 -5.68 5 -5 5 C-4.87625 4.360625 -4.7525 3.72125 -4.625 3.0625 C-4.41875 2.381875 -4.2125 1.70125 -4 1 C-2 0 -2 0 0 0 Z " fill="#3F1B36" transform="translate(399,171)"/>
<path d="M0 0 C0.33 0.66 0.66 1.32 1 2 C-0.16354 5.49062 -0.81769853 6.25605664 -4 8 C-7.234375 8.07421875 -7.234375 8.07421875 -10.75 7.6875 C-12.50570313 7.50767578 -12.50570313 7.50767578 -14.296875 7.32421875 C-15.18890625 7.21722656 -16.0809375 7.11023438 -17 7 C-17 6.67 -17 6.34 -17 6 C-15.78763672 5.85304687 -15.78763672 5.85304687 -14.55078125 5.703125 C-6.46310609 4.69576857 -6.46310609 4.69576857 0 0 Z " fill="#5A3952" transform="translate(483,179)"/>
<path d="M0 0 C0.66 0 1.32 0 2 0 C2.33 1.32 2.66 2.64 3 4 C-3.93 7.465 -3.93 7.465 -11 11 C-11 10.01 -11 9.02 -11 8 C-7.37 6.02 -3.74 4.04 0 2 C0 1.34 0 0.68 0 0 Z " fill="#633956" transform="translate(166,137)"/>
<path d="M0 0 C3.32532111 2.69192661 4.52454943 6.06546515 6 10 C6 10.99 6 11.98 6 13 C6.66 13 7.32 13 8 13 C8.33 11.68 8.66 10.36 9 9 C10 12 10 12 9.0625 14.1875 C8.711875 14.785625 8.36125 15.38375 8 16 C7.34 16 6.68 16 6 16 C4.99303432 13.89915791 3.9946411 11.79420511 3 9.6875 C2.443125 8.51574219 1.88625 7.34398437 1.3125 6.13671875 C0 3 0 3 0 0 Z " fill="#6A5F68" transform="translate(422,220)"/>
<path d="M0 0 C0.66 0 1.32 0 2 0 C2.33 1.32 2.66 2.64 3 4 C3.66 4 4.32 4 5 4 C5.33 2.68 5.66 1.36 6 0 C6.66 0 7.32 0 8 0 C7.34 2.97 6.68 5.94 6 9 C4.68 9 3.36 9 2 9 C1.34 6.03 0.68 3.06 0 0 Z " fill="#83757D" transform="translate(429,220)"/>
<path d="M0 0 C3.63 0 7.26 0 11 0 C11 0.66 11 1.32 11 2 C11.99 2.33 12.98 2.66 14 3 C13.34 3.66 12.68 4.32 12 5 C7.42243641 4.68789339 3.99425954 3.18733261 0 1 C0 0.67 0 0.34 0 0 Z " fill="#5E264E" transform="translate(178,144)"/>
<path d="M0 0 C2.475 0.99 2.475 0.99 5 2 C4.67 3.65 4.34 5.3 4 7 C4.66 7.33 5.32 7.66 6 8 C5.67 9.65 5.34 11.3 5 13 C2.94876752 10.94876752 2.35852882 9.72994937 1.375 7.0625 C0.98441406 6.02802734 0.98441406 6.02802734 0.5859375 4.97265625 C0 3 0 3 0 0 Z " fill="#583550" transform="translate(671,163)"/>
<path d="M0 0 C0.99 0 1.98 0 3 0 C3.125 6.625 3.125 6.625 2 10 C1.34 10 0.68 10 0 10 C-1.125 6.6875 -1.125 6.6875 -2 3 C-1.34 2.01 -0.68 1.02 0 0 Z " fill="#F3ECF1" transform="translate(428,223)"/>
<path d="M0 0 C4.23322844 0.62045463 7.52290295 2.10523559 11.3125 4.0625 C12.38113281 4.61035156 13.44976562 5.15820312 14.55078125 5.72265625 C15.35902344 6.14417969 16.16726562 6.56570312 17 7 C16.67 7.99 16.34 8.98 16 10 C10.72 7.03 5.44 4.06 0 1 C0 0.67 0 0.34 0 0 Z " fill="#5E2C52" transform="translate(157,212)"/>
<path d="M0 0 C6.435 2.97 6.435 2.97 13 6 C12.67 6.66 12.34 7.32 12 8 C7.0276578 6.50829734 2.58154261 4.39542583 -2 2 C-1.34 1.34 -0.68 0.68 0 0 Z " fill="#5F3653" transform="translate(228,168)"/>
<path d="M0 0 C0.33 0 0.66 0 1 0 C1 5.28 1 10.56 1 16 C0.01 16 -0.98 16 -2 16 C-2 13.03 -2 10.06 -2 7 C-1.67 7 -1.34 7 -1 7 C-0.67 4.69 -0.34 2.38 0 0 Z " fill="#D4CDD3" transform="translate(666,220)"/>
<path d="M0 0 C0.33 0 0.66 0 1 0 C1 1.98 1 3.96 1 6 C2.98 6 4.96 6 7 6 C7 6.33 7 6.66 7 7 C5.02 7 3.04 7 1 7 C1 8.98 1 10.96 1 13 C0.34 13 -0.32 13 -1 13 C-1.02686553 11.02090602 -1.04633375 9.04171029 -1.0625 7.0625 C-1.07410156 5.96035156 -1.08570313 4.85820312 -1.09765625 3.72265625 C-1 1 -1 1 0 0 Z " fill="#5D4F59" transform="translate(336,223)"/>
<path d="M0 0 C0.66 0.66 1.32 1.32 2 2 C1.01 2.33 0.02 2.66 -1 3 C-0.67 2.01 -0.34 1.02 0 0 Z M-2 3 C-1.67 4.32 -1.34 5.64 -1 7 C-3.64738916 8.4606285 -4.89448334 9 -8 9 C-8 8.01 -8 7.02 -8 6 C-7.34 6 -6.68 6 -6 6 C-6 5.34 -6 4.68 -6 4 C-4.68 3.67 -3.36 3.34 -2 3 Z " fill="#FCF8FD" transform="translate(161,136)"/>
<path d="M0 0 C-0.99 0.495 -0.99 0.495 -2 1 C-2 1.66 -2 2.32 -2 3 C-1.34 3.33 -0.68 3.66 0 4 C-3.465 5.485 -3.465 5.485 -7 7 C-7 6.01 -7 5.02 -7 4 C-6.34 3.67 -5.68 3.34 -5 3 C-5.33 2.01 -5.66 1.02 -6 0 C-3.50907189 -1.24546405 -2.58919267 -0.7767578 0 0 Z " fill="#622151" transform="translate(215,211)"/>
<path d="M0 0 C1.65 0 3.3 0 5 0 C4.01 0.495 4.01 0.495 3 1 C3.350625 1.7425 3.70125 2.485 4.0625 3.25 C5.04509293 6.1322726 5.0326802 7.21176345 4 10 C3.34 10 2.68 10 2 10 C1.34 6.7 0.68 3.4 0 0 Z " fill="#E6D6E3" transform="translate(693,168)"/>
<path d="M0 0 C0.99 0.33 1.98 0.66 3 1 C2.67 1.99 2.34 2.98 2 4 C3.32 4 4.64 4 6 4 C5.67 4.99 5.34 5.98 5 7 C0.32307692 5.52307692 0.32307692 5.52307692 -1.3125 2.875 C-1.539375 2.25625 -1.76625 1.6375 -2 1 C-1.34 0.67 -0.68 0.34 0 0 Z " fill="#532D4B" transform="translate(641,194)"/>
<path d="M0 0 C2.50037734 2.17424117 3.43628586 3.73045798 4 7 C2.02 7 0.04 7 -2 7 C-1.34 4.69 -0.68 2.38 0 0 Z " fill="#EADFE8" transform="translate(614,223)"/>
<path d="M0 0 C2.64 0 5.28 0 8 0 C5.16569547 3.2542015 3.31392226 4.5206753 -1 5 C-0.67 3.35 -0.34 1.7 0 0 Z " fill="#F2E8F0" transform="translate(355,231)"/>
<path d="M0 0 C1.65 0 3.3 0 5 0 C5.33 0.99 5.66 1.98 6 3 C5.67 3.66 5.34 4.32 5 5 C3.68 4.67 2.36 4.34 1 4 C0.67 4.66 0.34 5.32 0 6 C0 4.02 0 2.04 0 0 Z " fill="#F2EAF1" transform="translate(495,230)"/>
<path d="M0 0 C2.35953094 2.35953094 2.49141413 3.77895617 3 7 C1.02 7 -0.96 7 -3 7 C-2.01 4.69 -1.02 2.38 0 0 Z " fill="#ECE3EB" transform="translate(359,223)"/>
<path d="M0 0 C0.66 0.33 1.32 0.66 2 1 C1.125 5.875 1.125 5.875 0 7 C-1.99958364 7.04080783 -4.00045254 7.04254356 -6 7 C-4.68 6.67 -3.36 6.34 -2 6 C-2.33 5.01 -2.66 4.02 -3 3 C-2.34 3 -1.68 3 -1 3 C-0.67 2.01 -0.34 1.02 0 0 Z " fill="#F0E8EE" transform="translate(501,222)"/>
<path d="M0 0 C1.258125 -0.04125 2.51625 -0.0825 3.8125 -0.125 C4.52019531 -0.14820313 5.22789062 -0.17140625 5.95703125 -0.1953125 C8 0 8 0 11 2 C10.67 3.65 10.34 5.3 10 7 C9.7215625 6.0409375 9.7215625 6.0409375 9.4375 5.0625 C8.963125 4.381875 8.48875 3.70125 8 3 C5.67843403 2.59270772 3.3431213 2.25561323 1 2 C0.67 1.34 0.34 0.68 0 0 Z " fill="#756D73" transform="translate(686,220)"/>
<path d="M0 0 C1.98 0 3.96 0 6 0 C6.33 0.66 6.66 1.32 7 2 C9.32156597 2.40729228 11.6568787 2.74438677 14 3 C14 3.33 14 3.66 14 4 C4.41885965 4.56359649 4.41885965 4.56359649 0 1 C0 0.67 0 0.34 0 0 Z " fill="#6B4E65" transform="translate(854,198)"/>
<path d="M0 0 C-1.38009621 3.33523252 -2.84950652 5.18607951 -6 7 C-6.99 6.67 -7.98 6.34 -9 6 C-7.8803014 4.99406757 -6.7540588 3.9954151 -5.625 3 C-4.68527344 2.1646875 -4.68527344 2.1646875 -3.7265625 1.3125 C-2 0 -2 0 0 0 Z " fill="#51314B" transform="translate(452,158)"/>
<path d="M0 0 C0.33 1.32 0.66 2.64 1 4 C1.66 4.33 2.32 4.66 3 5 C1.48601545 8.78496138 0.9855604 9.0072198 -3 11 C-2.01 7.37 -1.02 3.74 0 0 Z " fill="#684760" transform="translate(706,146)"/>
<path d="M0 0 C0 0.99 0 1.98 0 3 C-4.95 5.475 -4.95 5.475 -10 8 C-10.33 7.34 -10.66 6.68 -11 6 C-7.37 4.02 -3.74 2.04 0 0 Z " fill="#F1DCEE" transform="translate(211,216)"/>
<path d="M0 0 C1.98 0.99 1.98 0.99 4 2 C4 3.65 4 5.3 4 7 C3.01 7 2.02 7 1 7 C0 6 0 6 -0.0625 2.9375 C-0.041875 1.968125 -0.02125 0.99875 0 0 Z " fill="#4C1A3B" transform="translate(802,174)"/>
<path d="M0 0 C0.33 1.32 0.66 2.64 1 4 C1.99 3.67 2.98 3.34 4 3 C3.34 4.32 2.68 5.64 2 7 C1.01 7 0.02 7 -1 7 C-1.625 5.1875 -1.625 5.1875 -2 3 C-1.34 2.01 -0.68 1.02 0 0 Z " fill="#512848" transform="translate(442,165)"/>
<path d="M0 0 C-0.66 1.32 -1.32 2.64 -2 4 C-3.32 4 -4.64 4 -6 4 C-6.33 5.32 -6.66 6.64 -7 8 C-7.33 6.68 -7.66 5.36 -8 4 C-2.25 0 -2.25 0 0 0 Z " fill="#51334B" transform="translate(600,132)"/>
<path d="M0 0 C2.83328987 2.83328987 3.7191375 4.35446828 5 8 C4.01 7.67 3.02 7.34 2 7 C1.67 7.66 1.34 8.32 1 9 C0.67 6.03 0.34 3.06 0 0 Z " fill="#EEE8EE" transform="translate(312,225)"/>
<path d="M0 0 C3.08089673 2.77280706 4.68775452 5.06326356 6 9 C3.53199953 7.84826645 1.95216435 6.95216435 0 5 C-0.125 2.375 -0.125 2.375 0 0 Z " fill="#5F3C55" transform="translate(420,168)"/>
<path d="M0 0 C0.99 0.66 1.98 1.32 3 2 C-2.445 4.475 -2.445 4.475 -8 7 C-5.73826764 2.47653527 -4.46594067 1.94171334 0 0 Z " fill="#68465D" transform="translate(222,86)"/>
<path d="M0 0 C0.89694794 3.58779175 1.08304117 6.34618837 1 10 C-0.32 10.33 -1.64 10.66 -3 11 C-2.01 7.37 -1.02 3.74 0 0 Z " fill="#674860" transform="translate(756,198)"/>
<path d="M0 0 C2.10633718 1.70828921 2.93801608 2.52148416 3.29296875 5.26171875 C3.25816406 6.06222656 3.22335937 6.86273438 3.1875 7.6875 C3.16042969 8.49574219 3.13335937 9.30398437 3.10546875 10.13671875 C3.07066406 10.75160156 3.03585937 11.36648437 3 12 C2.67 12 2.34 12 2 12 C0.86235649 7.73383684 0 4.43513689 0 0 Z " fill="#441D3B" transform="translate(483,144)"/>
<path d="M0 0 C4.40114397 0.50298788 6.71195019 2.08772731 10 5 C3.25 4.25 3.25 4.25 1 2 C0.67 1.34 0.34 0.68 0 0 Z " fill="#5C264C" transform="translate(160,111)"/>
<path d="M0 0 C0.33 0.99 0.66 1.98 1 3 C-0.175625 3.433125 -0.175625 3.433125 -1.375 3.875 C-4.09671632 4.84912254 -4.09671632 4.84912254 -6 7 C-6 5.68 -6 4.36 -6 3 C-2.78571429 0 -2.78571429 0 0 0 Z " fill="#F0E0EE" transform="translate(488,193)"/>
<path d="M0 0 C0.99 0.33 1.98 0.66 3 1 C2.34 2.32 1.68 3.64 1 5 C0.34 3.68 -0.32 2.36 -1 1 C-0.67 0.67 -0.34 0.34 0 0 Z M-2 5 C-1.34 5 -0.68 5 0 5 C0 5.66 0 6.32 0 7 C-0.66 7 -1.32 7 -2 7 C-2.33 7.66 -2.66 8.32 -3 9 C-2.67 7.68 -2.34 6.36 -2 5 Z " fill="#53244A" transform="translate(747,160)"/>
<path d="M0 0 C1.32 0 2.64 0 4 0 C4 0.66 4 1.32 4 2 C0.04 3.98 0.04 3.98 -4 6 C-4 5.01 -4 4.02 -4 3 C-3.01 3 -2.02 3 -1 3 C-0.67 2.01 -0.34 1.02 0 0 Z " fill="#5B264F" transform="translate(234,160)"/>
<path d="M0 0 C0.66 0.33 1.32 0.66 2 1 C1.3125 2.9375 1.3125 2.9375 0 5 C-2.625 5.75 -2.625 5.75 -5 6 C-3.35 4.02 -1.7 2.04 0 0 Z " fill="#52304B" transform="translate(407,140)"/>
<path d="M0 0 C0.33 0.66 0.66 1.32 1 2 C0.34 2 -0.32 2 -1 2 C0.32 3.32 1.64 4.64 3 6 C2.67 6.66 2.34 7.32 2 8 C0.02 6.68 -1.96 5.36 -4 4 C-2.68 2.68 -1.36 1.36 0 0 Z " fill="#F1DCEE" transform="translate(140,92)"/>
<path d="M0 0 C0.66 0.66 1.32 1.32 2 2 C-1.06117568 4.62386487 -1.73173127 5 -6 5 C-5.67 4.01 -5.34 3.02 -5 2 C-3.35 2 -1.7 2 0 2 C0 1.34 0 0.68 0 0 Z " fill="#562247" transform="translate(192,224)"/>
<path d="M0 0 C0.66 0.33 1.32 0.66 2 1 C1.34 3.31 0.68 5.62 0 8 C-2 5 -2 5 -2 2 C-1.34 2 -0.68 2 0 2 C0 1.34 0 0.68 0 0 Z " fill="#F1E1EE" transform="translate(768,169)"/>
<path d="M0 0 C-0.33 1.32 -0.66 2.64 -1 4 C-2.98 4 -4.96 4 -7 4 C-3.17391304 0 -3.17391304 0 0 0 Z " fill="#61274E" transform="translate(214,153)"/>
<path d="M0 0 C1.32 0.33 2.64 0.66 4 1 C3.67 3.31 3.34 5.62 3 8 C1.0549 5.08235 0.54723683 3.37462715 0 0 Z " fill="#5F3C55" transform="translate(664,144)"/>
<path d="M0 0 C-1 3 -1 3 -4 5 C-4.99 5 -5.98 5 -7 5 C-6 2 -6 2 -4.0625 0.8125 C-2 0 -2 0 0 0 Z " fill="#502D48" transform="translate(452,131)"/>
<path d="M0 0 C-3 2 -3 2 -6 3 C-6.99 2.34 -7.98 1.68 -9 1 C-5.64919071 -1.10976881 -3.77897651 -1.0497157 0 0 Z " fill="#F5E6F2" transform="translate(154,88)"/>
<path d="M0 0 C0.33 0.66 0.66 1.32 1 2 C0.0625 4.125 0.0625 4.125 -1 6 C-2.32 5.34 -3.64 4.68 -5 4 C-3.35 2.68 -1.7 1.36 0 0 Z " fill="#522D4B" transform="translate(754,208)"/>
<path d="M0 0 C0.99 0.33 1.98 0.66 3 1 C4.1875 3.5625 4.1875 3.5625 5 6 C3.02 5.34 1.04 4.68 -1 4 C-0.67 2.68 -0.34 1.36 0 0 Z " fill="#5F3D58" transform="translate(435,191)"/>
<path d="M0 0 C-0.99 1.485 -0.99 1.485 -2 3 C-2.66 3 -3.32 3 -4 3 C-4 2.34 -4 1.68 -4 1 C-6.31 1 -8.62 1 -11 1 C-11 0.67 -11 0.34 -11 0 C-9.54263913 -0.19491452 -8.08405407 -0.38069358 -6.625 -0.5625 C-5.81289063 -0.66691406 -5.00078125 -0.77132812 -4.1640625 -0.87890625 C-2 -1 -2 -1 0 0 Z " fill="#725069" transform="translate(840,185)"/>
<path d="M0 0 C2.475 0.99 2.475 0.99 5 2 C5 2.99 5 3.98 5 5 C3.68 4.67 2.36 4.34 1 4 C0.67 2.68 0.34 1.36 0 0 Z " fill="#5F435A" transform="translate(596,145)"/>
<path d="M0 0 C0.66 0.33 1.32 0.66 2 1 C1.67 2.98 1.34 4.96 1 7 C-0.65 6.67 -2.3 6.34 -4 6 C-4 5.34 -4 4.68 -4 4 C-2.68 3.67 -1.36 3.34 0 3 C0 2.01 0 1.02 0 0 Z " fill="#5F2850" transform="translate(240,135)"/>
<path d="M0 0 C1.5 1.375 1.5 1.375 3 3 C3 3.66 3 4.32 3 5 C1.35 5.66 -0.3 6.32 -2 7 C-1.34 4.69 -0.68 2.38 0 0 Z " fill="#E6D2E2" transform="translate(730,135)"/>
</svg>
