<?xml version="1.0" encoding="utf-8"?>
<!-- Generator: Adobe Illustrator 27.9.0, SVG Export Plug-In . SVG Version: 6.00 Build 0)  -->
<svg version="1.1" id="Layer_1" xmlns="http://www.w3.org/2000/svg" xmlns:xlink="http://www.w3.org/1999/xlink" x="0px" y="0px"
	 viewBox="0 0 180 40" style="enable-background:new 0 0 180 40;" xml:space="preserve">
<style type="text/css">
	.st0{fill:#F88D34;}
	.st1{fill:#a4a4a8;}
	.st2{fill:#FFFFFF;}
	.st3{fill:#92267C;}
	.st4{fill:#A5CF47;}
	.st5{fill:none;}
</style>
<g>
	<g>
		<path class="st0" d="M82.65,6h4.08l3.23,8.52L93.38,6h4.12l2.41,15.94h-4.14l-1.16-9.17h-0.04l-3.83,9.17h-1.65l-3.66-9.17h-0.04
			l-1.33,9.17h-4.12L82.65,6z"/>
		<path class="st0" d="M106.24,21.94h-4.14V6h4.14V21.94z"/>
		<path class="st0" d="M116.02,21.94h-4.14V9.51h-3.42V6h10.99v3.51h-3.42V21.94z"/>
	</g>
	<g>
		<path class="st1" d="M85.02,33.93l-0.47-1.41h-2.84l-0.48,1.41H79.6l2.91-7.99h1.22l2.92,7.99H85.02z M83.15,28.3l-1.01,2.91h1.99
			L83.15,28.3z"/>
		<path class="st1" d="M90.43,30.93h-1.54v3.01h-1.56v-7.99h3.1c1.65,0,2.64,1.13,2.64,2.49C93.06,29.79,92.08,30.93,90.43,30.93z
			 M90.35,27.33h-1.46v2.19h1.46c0.71,0,1.16-0.44,1.16-1.09S91.06,27.33,90.35,27.33z"/>
		<path class="st1" d="M97.35,30.93h-1.54v3.01h-1.56v-7.99h3.1c1.65,0,2.64,1.13,2.64,2.49C99.98,29.79,99,30.93,97.35,30.93z
			 M97.27,27.33h-1.46v2.19h1.46c0.71,0,1.16-0.44,1.16-1.09S97.98,27.33,97.27,27.33z"/>
		<path class="st1" d="M104.7,33.93v-7.99h1.56v7.99H104.7z"/>
		<path class="st1" d="M112.57,33.93l-3.16-4.9v4.9h-1.56v-7.99h1.39l3.16,4.89v-4.89h1.56v7.99H112.57z"/>
		<path class="st1" d="M118.58,33.93h-1.17l-2.64-7.99h1.62l1.6,5.21l1.6-5.21h1.63L118.58,33.93z"/>
		<path class="st1" d="M122.05,33.93v-7.99h5.26v1.39h-3.7v1.87h3.15v1.39h-3.15v1.94h3.7v1.39H122.05z"/>
		<path class="st1" d="M133.31,33.93l-3.16-4.9v4.9h-1.56v-7.99h1.39l3.16,4.89v-4.89h1.56v7.99H133.31z"/>
		<path class="st1" d="M139.35,27.33v6.6h-1.56v-6.6h-2.09v-1.39h5.73v1.39H139.35z"/>
		<path class="st1" d="M146.95,33.12c-0.56,0.56-1.25,0.88-2.15,0.88s-1.6-0.31-2.17-0.88c-0.81-0.81-0.79-1.81-0.79-3.19
			c0-1.38-0.02-2.38,0.79-3.19c0.56-0.56,1.26-0.88,2.17-0.88s1.59,0.31,2.15,0.88c0.81,0.81,0.8,1.81,0.8,3.19
			C147.75,31.32,147.76,32.32,146.95,33.12z M145.8,27.69c-0.22-0.26-0.57-0.43-1-0.43s-0.79,0.17-1.01,0.43
			c-0.3,0.34-0.38,0.71-0.38,2.24c0,1.54,0.08,1.91,0.38,2.24c0.22,0.26,0.58,0.43,1.01,0.43s0.77-0.17,1-0.43
			c0.3-0.34,0.39-0.71,0.39-2.24C146.19,28.4,146.1,28.03,145.8,27.69z"/>
		<path class="st1" d="M153.3,33.93l-1.56-3.19h-1.12v3.19h-1.56v-7.99h3.13c1.63,0,2.59,1.11,2.59,2.45c0,1.12-0.68,1.82-1.46,2.1
			l1.78,3.44H153.3z M152.09,27.33h-1.47v2.11h1.47c0.68,0,1.13-0.44,1.13-1.05C153.22,27.77,152.77,27.33,152.09,27.33z"/>
	</g>
</g>
<g>
	<g>
		<path class="st2" d="M57.44,14.62l0.8-1.41V13.2h-4.18l-1.9,3.32c-0.86-0.18-1.76-0.27-2.7-0.27c0,0,0,0,0,0
			c-0.93,0-1.84,0.1-2.7,0.28l-1.9-3.32h-4.17l0.81,1.42h2.54l1.3,2.28l0,0c-2.64,0.88-4.68,2.54-5.57,4.6
			c-0.32,0.73-0.49,1.51-0.49,2.33l20.37,0c0-0.82-0.17-1.6-0.49-2.34c-0.9-2.06-2.94-3.71-5.58-4.59l0,0l1.3-2.27H57.44z"/>
		<path class="st3" d="M41.5,14.62l-0.66-1.17l-0.09-0.16l-0.05-0.09l0,0h4.17l1.9,3.32c0.86-0.18,1.76-0.27,2.7-0.28V6.18
			L39.27,0.3L29.08,6.18v11.75c0.2-0.01,0.39-0.02,0.59-0.02c0.28,0,0.55,0.01,0.83,0.02c0.09,0,0.18,0.01,0.28,0.02
			c0.18,0.01,0.36,0.02,0.54,0.04c0.11,0.01,0.22,0.02,0.33,0.03c0.16,0.02,0.32,0.04,0.48,0.06c0.12,0.02,0.23,0.03,0.35,0.05
			c0.15,0.02,0.29,0.05,0.44,0.08c0.12,0.02,0.24,0.04,0.36,0.07c0.14,0.03,0.27,0.06,0.41,0.09c0.3,0.07,0.6,0.15,0.89,0.24
			c0.05,0.01,0.09,0.03,0.14,0.04c0.16,0.05,0.32,0.11,0.48,0.16c0.07,0.03,0.15,0.05,0.22,0.08c0.16,0.06,0.32,0.12,0.48,0.18
			c0.06,0.02,0.12,0.05,0.18,0.07c0.17,0.07,0.33,0.14,0.49,0.22c0.04,0.02,0.08,0.04,0.12,0.06c1.18,0.56,2.23,1.26,3.08,2.07
			c0.89-2.06,2.94-3.72,5.57-4.59l-1.3-2.28H41.5z"/>
		<path class="st4" d="M59.65,0.3L49.46,6.18v10.06c0.93,0,1.84,0.1,2.7,0.27l1.9-3.32h4.18v0v0.01l-0.8,1.41h-2.56l-1.3,2.27
			c2.64,0.88,4.68,2.53,5.58,4.59c0.85-0.81,1.9-1.51,3.08-2.07c0.04-0.02,0.08-0.04,0.12-0.06c0.16-0.07,0.33-0.15,0.49-0.22
			c0.06-0.03,0.12-0.05,0.19-0.07c0.16-0.06,0.32-0.13,0.48-0.18c0.07-0.03,0.15-0.05,0.22-0.08c0.16-0.05,0.32-0.11,0.48-0.16
			c0.06-0.02,0.12-0.03,0.17-0.05c0.28-0.08,0.57-0.16,0.86-0.23c0.14-0.03,0.27-0.07,0.41-0.09c0.12-0.02,0.24-0.05,0.35-0.07
			c0.15-0.03,0.29-0.05,0.44-0.08c0.11-0.02,0.23-0.04,0.34-0.05c0.16-0.02,0.32-0.04,0.48-0.06c0.11-0.01,0.22-0.02,0.33-0.03
			c0.18-0.02,0.36-0.03,0.54-0.04c0.09-0.01,0.18-0.01,0.27-0.02c0.27-0.01,0.55-0.02,0.83-0.02c0.2,0,0.4,0.01,0.6,0.02V6.18
			L59.65,0.3z"/>
	</g>
	<path class="st5" d="M39.77,21.49c-0.85-0.81-1.9-1.51-3.08-2.07C37.87,19.98,38.91,20.68,39.77,21.49z"/>
	<path class="st5" d="M39.77,21.5c0.89-2.06,2.94-3.72,5.57-4.6l0,0C42.7,17.78,40.66,19.44,39.77,21.5
		c-0.32,0.73-0.49,1.51-0.49,2.33h0C39.27,23.01,39.45,22.23,39.77,21.5z"/>
	<path class="st5" d="M59.16,21.49c0.85-0.81,1.9-1.51,3.08-2.07C61.05,19.98,60.01,20.68,59.16,21.49z"/>
	<polygon class="st2" points="39.27,23.83 39.27,23.83 39.27,23.83 39.27,23.83 	"/>
	<polygon class="st0" points="39.27,27.82 39.27,30.82 39.27,29.82 59.65,29.82 59.65,26.83 59.65,27.82 	"/>
	<polygon class="st0" points="39.27,23.82 39.27,23.83 39.27,23.83 39.27,25.82 59.65,25.82 59.64,23.83 59.64,23.83 39.27,23.82 	
		"/>
	<polygon class="st1" points="39.27,25.82 39.27,27.82 39.27,27.82 59.65,27.82 59.65,25.82 59.65,25.82 39.27,25.82 	"/>
	<polygon class="st1" points="39.27,31.81 39.27,31.81 59.65,31.81 59.65,29.82 59.65,29.82 39.27,29.82 	"/>
	<g>
		<circle class="st1" cx="46.92" cy="20.83" r="0.99"/>
		<circle class="st1" cx="51.99" cy="20.83" r="0.99"/>
	</g>
	<path class="st0" d="M69.84,17.93c-0.2-0.01-0.4-0.02-0.6-0.02c-0.28,0-0.55,0.01-0.83,0.02c-0.09,0-0.18,0.01-0.27,0.02
		c-0.18,0.01-0.36,0.02-0.54,0.04c-0.11,0.01-0.22,0.02-0.33,0.03c-0.16,0.02-0.32,0.04-0.48,0.06c-0.12,0.02-0.23,0.03-0.34,0.05
		c-0.15,0.02-0.3,0.05-0.44,0.08c-0.12,0.02-0.24,0.04-0.35,0.07c-0.14,0.03-0.27,0.06-0.41,0.09c-0.29,0.07-0.58,0.14-0.86,0.23
		c-0.06,0.02-0.12,0.03-0.17,0.05c-0.16,0.05-0.32,0.1-0.48,0.16c-0.07,0.03-0.15,0.05-0.22,0.08c-0.16,0.06-0.32,0.12-0.48,0.18
		c-0.06,0.02-0.12,0.05-0.19,0.07c-0.17,0.07-0.33,0.14-0.49,0.22c-0.04,0.02-0.08,0.04-0.12,0.06c-1.18,0.56-2.23,1.26-3.08,2.07
		c0.32,0.73,0.49,1.52,0.49,2.34c1.27-1.84,3.69-3.2,6.54-3.77c0.98-0.2,2-0.3,3.06-0.3c1.33,0,2.63,0.17,3.86,0.49l0.93-1.66
		C72.71,18.21,71.29,17.98,69.84,17.93z"/>
	<path class="st0" d="M29.67,19.75c1.05,0,2.08,0.11,3.06,0.3c2.85,0.57,5.27,1.93,6.54,3.77c0-0.82,0.18-1.6,0.49-2.33
		c-0.85-0.81-1.9-1.51-3.08-2.07c-0.04-0.02-0.08-0.04-0.12-0.06c-0.16-0.07-0.33-0.15-0.49-0.22c-0.06-0.03-0.12-0.05-0.18-0.07
		c-0.16-0.06-0.32-0.13-0.48-0.18c-0.07-0.03-0.15-0.05-0.22-0.08c-0.16-0.05-0.32-0.11-0.48-0.16c-0.05-0.01-0.09-0.03-0.14-0.04
		c-0.29-0.09-0.59-0.17-0.89-0.24c-0.14-0.03-0.27-0.06-0.41-0.09c-0.12-0.02-0.24-0.05-0.36-0.07c-0.15-0.03-0.29-0.05-0.44-0.08
		c-0.11-0.02-0.23-0.04-0.35-0.05c-0.16-0.02-0.32-0.04-0.48-0.06c-0.11-0.01-0.22-0.02-0.33-0.03c-0.18-0.02-0.36-0.03-0.54-0.04
		c-0.09-0.01-0.18-0.01-0.28-0.02c-0.27-0.01-0.55-0.02-0.83-0.02c-0.2,0-0.4,0.01-0.59,0.02c-1.44,0.05-2.86,0.27-4.18,0.65
		l0.93,1.66C27.05,19.92,28.35,19.75,29.67,19.75z"/>
	<path class="st0" d="M61.19,33.28c-0.6-0.45-1.12-0.94-1.54-1.47l0,0H39.27c-0.42,0.52-0.94,1.02-1.54,1.47
		c-1.03,0.77-2.23,1.36-3.55,1.76l1.01,1.78c0.28-0.09,0.56-0.19,0.83-0.3c0.9-0.36,1.73-0.81,2.47-1.31
		c0.45-0.31,0.87-0.63,1.25-0.98c0.03-0.03,0.06-0.06,0.09-0.08l9.63,5.56l9.63-5.56c0.03,0.03,0.06,0.06,0.09,0.08
		c0.39,0.35,0.81,0.68,1.25,0.98c0.75,0.51,1.58,0.95,2.47,1.31c0.27,0.11,0.55,0.21,0.84,0.31l1.01-1.78
		C63.43,34.65,62.22,34.05,61.19,33.28z"/>
</g>
</svg>
