<?xml version="1.0" encoding="UTF-8"?>
<svg version="1.1" xmlns="http://www.w3.org/2000/svg" width="640" height="320">
<path d="M0 0 C3.72082257 1.95013584 7.21190043 4.28060433 10.72265625 6.58203125 C15.03668326 9.27664923 15.03668326 9.27664923 19.96875 10.12890625 C25.13926869 8.20328782 29.70420584 5.25021268 34.3671875 2.33007812 C40.23086722 -1.13975928 40.23086722 -1.13975928 44.2890625 -0.40234375 C45.18367188 0.06042969 46.07828125 0.52320312 47 1 C47.77085937 1.23976563 48.54171875 1.47953125 49.3359375 1.7265625 C51.95304629 2.87969473 53.27093237 3.681673 55 6 C55.70720382 11.41282927 55.45908566 16.5738625 55 22 C52.69 23.32 50.38 24.64 48 26 C50.297221 27.74271938 52.59866729 29.39911152 55 31 C55.22107787 33.7885289 55.28107535 36.34653181 55.1875 39.125 C55.16719727 40.25615234 55.16719727 40.25615234 55.14648438 41.41015625 C55.11109985 43.27374127 55.05729167 45.13695978 55 47 C52.69 48.32 50.38 49.64 48 51 C50.297221 52.74271938 52.59866729 54.39911152 55 56 C55.22107787 58.7885289 55.28107535 61.34653181 55.1875 64.125 C55.16719727 65.25615234 55.16719727 65.25615234 55.14648438 66.41015625 C55.11109985 68.27374127 55.05729167 70.13695978 55 72 C54.21874756 72.43344727 53.43749512 72.86689453 52.63256836 73.31347656 C49.70447634 74.93828866 46.77660492 76.56349692 43.84887695 78.18896484 C42.58724495 78.88931645 41.32552793 79.58951493 40.0637207 80.28955078 C38.8381223 80.96952267 37.61274677 81.64989643 36.38760376 82.33068848 C35.19421583 82.99280617 33.99970299 83.65290059 32.80404663 84.31091309 C29.80443257 85.96702603 26.88925299 87.7011426 24.00390625 89.546875 C20.33957919 91.31947535 18.84287451 91.2317558 15 90 C7.44565426 86.56708807 0.39780489 82.09232189 -6.546875 77.57421875 C-8.70816071 76.18727903 -10.88790407 74.8845032 -13.125 73.625 C-16 72 -16 72 -17 71 C-17.14137624 69.00814604 -17.21248279 67.01127564 -17.25634766 65.01489258 C-17.28532135 63.73298538 -17.31429504 62.45107819 -17.34414673 61.13032532 C-17.43376257 56.02180734 -17.50148931 50.9129857 -17.54844093 45.80389881 C-17.58418584 41.92447612 -17.6374216 38.04713035 -17.73388672 34.16870117 C-17.82685857 30.41960291 -17.87538336 26.6723411 -17.89283371 22.92215538 C-17.90690761 21.49504587 -17.93650423 20.06799929 -17.98213577 18.64155006 C-18.32210569 7.46500051 -18.32210569 7.46500051 -15.00457764 3.78890991 C-12.71945371 2.24201673 -10.54166038 1.06213891 -8 0 C-4.96243675 -1.51878162 -3.28232665 -0.85069475 0 0 Z " fill="#6C0B50" transform="translate(105,115)"/>
<path d="M0 0 C4.60909071 3.6158484 7.15351158 7.55688288 8.61328125 13.265625 C8.84153233 16.562822 8.80294782 19.83765577 8.73828125 23.140625 C8.72925781 24.01976562 8.72023438 24.89890625 8.7109375 25.8046875 C8.68752702 27.9584521 8.65166135 30.11207514 8.61328125 32.265625 C9.27328125 32.265625 9.93328125 32.265625 10.61328125 32.265625 C10.61328125 36.555625 10.61328125 40.845625 10.61328125 45.265625 C6.90783514 46.5007737 3.46422934 46.842518 -0.38671875 46.265625 C-3.38671875 44.265625 -3.38671875 44.265625 -5.38671875 42.265625 C-5.88300781 42.54277344 -6.37929688 42.81992188 -6.890625 43.10546875 C-12.99413838 46.35990378 -18.05001366 48.12310329 -24.94921875 46.265625 C-29.75544059 44.49102001 -32.66126195 41.54848568 -35.38671875 37.265625 C-36.94089494 32.60309642 -36.93120677 28.77809173 -35.26171875 24.140625 C-32.31589889 19.62370121 -29.14125882 16.97418926 -24.13671875 14.953125 C-18.51563074 13.9225922 -12.86154028 13.44068449 -7.38671875 15.265625 C-8.23069181 12.60311666 -8.23069181 12.60311666 -10.38671875 10.265625 C-16.13147521 9.00403142 -20.33453481 10.5098883 -25.38671875 13.265625 C-28.26171875 13.453125 -28.26171875 13.453125 -30.38671875 13.265625 C-31.70671875 10.955625 -33.02671875 8.645625 -34.38671875 6.265625 C-34.82016602 7.48556152 -35.25361328 8.70549805 -35.70019531 9.96240234 C-37.32337796 14.52918902 -38.9491568 19.09504797 -40.57568359 23.66064453 C-41.27657721 25.62914604 -41.97678562 27.59789166 -42.67626953 29.56689453 C-43.68728332 32.41244403 -44.70083556 35.25707888 -45.71484375 38.1015625 C-46.17603607 39.40219131 -46.17603607 39.40219131 -46.64654541 40.72909546 C-47.5456282 43.24679891 -48.46049711 45.75778335 -49.38671875 48.265625 C-49.72030396 49.17282288 -50.05388916 50.08002075 -50.39758301 51.01470947 C-50.73656616 51.90398132 -51.07554932 52.79325317 -51.42480469 53.70947266 C-51.72739197 54.51035309 -52.02997925 55.31123352 -52.34173584 56.13638306 C-54.03905827 59.59482249 -56.19123758 61.15796721 -59.38671875 63.265625 C-62.78064526 64.39693384 -65.44006747 64.3985444 -69.01171875 64.390625 C-70.17960937 64.39320313 -71.3475 64.39578125 -72.55078125 64.3984375 C-75.38671875 64.265625 -75.38671875 64.265625 -76.38671875 63.265625 C-76.48545691 61.26762928 -76.51643674 59.26605342 -76.51171875 57.265625 C-76.51429688 56.1725 -76.516875 55.079375 -76.51953125 53.953125 C-76.38671875 51.265625 -76.38671875 51.265625 -75.38671875 50.265625 C-73.43765625 50.1109375 -73.43765625 50.1109375 -71.44921875 49.953125 C-68.21774563 49.64494057 -68.21774563 49.64494057 -65.82421875 47.578125 C-64.89413241 42.66195432 -66.65031689 38.19328783 -68.56640625 33.7109375 C-69.00082031 32.68355469 -69.43523437 31.65617187 -69.8828125 30.59765625 C-70.33785156 29.53933594 -70.79289062 28.48101562 -71.26171875 27.390625 C-72.15625729 25.2896195 -73.04951375 23.18806762 -73.94140625 21.0859375 C-74.33827637 20.16055176 -74.73514648 19.23516602 -75.14404297 18.28173828 C-76.64492954 14.63891849 -78.01797391 10.96009504 -79.38671875 7.265625 C-79.77529053 8.34569824 -80.1638623 9.42577148 -80.56420898 10.53857422 C-82.00355951 14.53837107 -83.44452598 18.53758415 -84.88598633 22.53662109 C-85.510127 24.2688835 -86.13382688 26.0013048 -86.75708008 27.73388672 C-87.65200343 30.22144614 -88.54850044 32.70843347 -89.4453125 35.1953125 C-89.72451035 35.97244598 -90.00370819 36.74957947 -90.29136658 37.55026245 C-92.27284704 43.03788159 -92.27284704 43.03788159 -93.38671875 45.265625 C-98.66671875 45.265625 -103.94671875 45.265625 -109.38671875 45.265625 C-113.90124993 33.92299338 -118.37912396 22.5665023 -122.51171875 11.078125 C-122.81859619 10.24829102 -123.12547363 9.41845703 -123.44165039 8.56347656 C-123.71485107 7.79100586 -123.98805176 7.01853516 -124.26953125 6.22265625 C-124.51074707 5.55210205 -124.75196289 4.88154785 -125.00048828 4.19067383 C-125.38671875 2.265625 -125.38671875 2.265625 -124.38671875 -1.734375 C-119.76671875 -1.734375 -115.14671875 -1.734375 -110.38671875 -1.734375 C-107.88624483 3.79970693 -105.98561603 9.40284741 -104.19921875 15.203125 C-103.92658203 16.07775391 -103.65394531 16.95238281 -103.37304688 17.85351562 C-102.70762186 19.98988016 -102.04559521 22.12723362 -101.38671875 24.265625 C-99.43742817 21.34168913 -98.78664548 19.43256314 -97.94921875 16.078125 C-96.30982658 9.81862761 -94.28926339 4.07071428 -91.38671875 -1.734375 C-82.80671875 -1.734375 -74.22671875 -1.734375 -65.38671875 -1.734375 C-62.41671875 6.845625 -59.44671875 15.425625 -56.38671875 24.265625 C-54.02321181 18.06307747 -54.02321181 18.06307747 -52.03515625 11.80078125 C-51.82375 11.06408203 -51.61234375 10.32738281 -51.39453125 9.56835938 C-51.18570313 8.82908203 -50.976875 8.08980469 -50.76171875 7.328125 C-48.5213905 -0.59970325 -48.5213905 -0.59970325 -47.38671875 -1.734375 C-45.0335832 -1.80709241 -42.67838207 -1.81808368 -40.32421875 -1.796875 C-38.38869141 -1.78333984 -38.38869141 -1.78333984 -36.4140625 -1.76953125 C-35.41503906 -1.75792969 -34.41601562 -1.74632812 -33.38671875 -1.734375 C-32.89171875 0.245625 -32.89171875 0.245625 -32.38671875 2.265625 C-31.855625 1.98847656 -31.32453125 1.71132812 -30.77734375 1.42578125 C-30.0709375 1.06355469 -29.36453125 0.70132813 -28.63671875 0.328125 C-27.59257813 -0.21134766 -27.59257813 -0.21134766 -26.52734375 -0.76171875 C-18.65376658 -4.3393113 -7.46655941 -4.54069138 0 0 Z M-21.38671875 27.265625 C-21.05671875 29.245625 -20.72671875 31.225625 -20.38671875 33.265625 C-16.59545481 34.0833486 -14.17208538 34.57294238 -10.51171875 33.140625 C-8.19028148 31.40859414 -8.19028148 31.40859414 -7.51171875 28.640625 C-7.47046875 27.856875 -7.42921875 27.073125 -7.38671875 26.265625 C-9.04325561 24.60908814 -10.99322671 25.09456335 -13.26171875 25.078125 C-14.58816406 25.05685547 -14.58816406 25.05685547 -15.94140625 25.03515625 C-18.64438601 25.09494076 -18.64438601 25.09494076 -21.38671875 27.265625 Z " fill="#571745" transform="translate(543.38671875,142.734375)"/>
<path d="M0 0 C1.1653125 -0.01675781 2.330625 -0.03351563 3.53125 -0.05078125 C5.00078125 0.12904297 5.00078125 0.12904297 6.5 0.3125 C8.60483746 3.46975619 8.7472059 4.18624611 8.72705078 7.78393555 C8.72689972 8.68464279 8.72674866 9.58535004 8.72659302 10.51335144 C8.71627045 11.48218765 8.70594788 12.45102386 8.6953125 13.44921875 C8.6924826 14.44379593 8.68965271 15.43837311 8.68673706 16.46308899 C8.67553489 19.6421813 8.65043014 22.82099272 8.625 26 C8.61497025 28.15429281 8.60584439 30.30859003 8.59765625 32.46289062 C8.57729633 37.74628925 8.53814744 43.02907989 8.5 48.3125 C21.865 48.8075 21.865 48.8075 35.5 49.3125 C35.83 47.0025 36.16 44.6925 36.5 42.3125 C39.08834925 37.47613809 43.01572806 34.37306723 48.2109375 32.73828125 C53.61896777 31.7323507 59.26512411 31.56754137 64.5 33.3125 C63.1910428 30.19052522 63.1910428 30.19052522 60.5 28.3125 C56.04695374 28.01059856 52.85657957 27.93277757 48.8125 29.875 C45.5 31.3125 45.5 31.3125 42.8125 31.5 C39.09205315 29.58950027 38.03051568 26.06611108 36.5 22.3125 C37.70290011 21.51260196 38.91266295 20.72302176 40.125 19.9375 C40.79789062 19.49664062 41.47078125 19.05578125 42.1640625 18.6015625 C49.80071323 14.38735725 58.82389971 13.88536621 67.234375 16 C72.39219745 18.07697548 75.38504698 20.73741276 78.5 25.3125 C79.50005304 28.31265912 79.61575585 30.28673756 79.59765625 33.41796875 C79.59282227 34.89233398 79.59282227 34.89233398 79.58789062 36.39648438 C79.57532227 37.93272461 79.57532227 37.93272461 79.5625 39.5 C79.55798828 40.53576172 79.55347656 41.57152344 79.54882812 42.63867188 C79.5370401 45.19667266 79.52058515 47.75455733 79.5 50.3125 C80.49 50.3125 81.48 50.3125 82.5 50.3125 C82.5 54.6025 82.5 58.8925 82.5 63.3125 C78.88069302 64.51893566 76.30768995 64.63518559 72.5 64.3125 C71.55125 63.57 70.6025 62.8275 69.625 62.0625 C68.078125 61.19625 68.078125 61.19625 66.5 60.3125 C64.10239297 60.99948038 62.07475421 62.05807543 59.859375 63.19921875 C55.39851187 65.30409622 50.98217313 66.11430163 46.2265625 64.578125 C42.55392905 62.85450641 40.80029749 61.76294624 38.5 58.3125 C38.17 59.9625 37.84 61.6125 37.5 63.3125 C31.10962769 63.33777062 24.71926817 63.35533317 18.32885742 63.36743164 C16.15307127 63.37247308 13.97728853 63.37930607 11.80151367 63.38793945 C8.68146933 63.40001338 5.56146962 63.40573005 2.44140625 63.41015625 C0.97266808 63.41789818 0.97266808 63.41789818 -0.52574158 63.42579651 C-1.42659988 63.42587204 -2.32745819 63.42594757 -3.25561523 63.42602539 C-4.05281479 63.428246 -4.85001434 63.43046661 -5.67137146 63.43275452 C-7.5 63.3125 -7.5 63.3125 -8.5 62.3125 C-8.60434618 60.45159424 -8.63854637 58.58671724 -8.64526367 56.72290039 C-8.65164352 55.52818619 -8.65802338 54.33347198 -8.66459656 53.10255432 C-8.66570938 51.80156296 -8.6668222 50.50057159 -8.66796875 49.16015625 C-8.67117976 47.82116154 -8.67454371 46.48216718 -8.67805481 45.14317322 C-8.68405208 42.3328266 -8.68589411 39.52251077 -8.68530273 36.7121582 C-8.68520109 33.1060364 -8.69885245 29.50011142 -8.71607494 25.89403629 C-8.72717859 23.12742705 -8.72922245 20.36086562 -8.72869301 17.59423637 C-8.7304519 15.61660686 -8.74130352 13.63899226 -8.75224304 11.66139221 C-8.74916641 10.46352585 -8.74608978 9.26565948 -8.74291992 8.03149414 C-8.74434494 6.97305801 -8.74576996 5.91462189 -8.74723816 4.82411194 C-8.21214145 -0.61176121 -4.57897715 0.01519572 0 0 Z M50.5 45.3125 C50 47.8125 50 47.8125 50.5 50.3125 C53.37737082 52.66349848 53.37737082 52.66349848 56.9375 52.125 C60.33762889 51.34953201 61.97732403 50.63336189 64.5 48.3125 C64.17 46.6625 63.84 45.0125 63.5 43.3125 C61.89620659 43.25833812 60.29188594 43.21963362 58.6875 43.1875 C57.79417969 43.16429687 56.90085937 43.14109375 55.98046875 43.1171875 C53.24597286 43.12964173 53.24597286 43.12964173 50.5 45.3125 Z " fill="#571845" transform="translate(338.5,124.6875)"/>
<path d="M0 0 C1.10800209 0.00213753 1.10800209 0.00213753 2.23838806 0.00431824 C3.4946273 -0.00029671 3.4946273 -0.00029671 4.77624512 -0.00500488 C5.68148422 0.00218063 6.58672333 0.00936615 7.51939392 0.01676941 C8.44642624 0.01722763 9.37345856 0.01768585 10.32858276 0.01815796 C12.28974181 0.02118162 14.25089842 0.02907131 16.21202087 0.04142761 C19.22537169 0.05968444 22.23841545 0.06193734 25.2518158 0.06169128 C27.15351118 0.06660631 29.05520447 0.07243456 30.95689392 0.07926941 C31.86415726 0.08038223 32.77142059 0.08149506 33.70617676 0.0826416 C40.0556932 0.13119368 40.0556932 0.13119368 41.17173767 1.24723816 C41.29688695 3.22343263 41.34746527 5.20461989 41.35923767 7.18473816 C41.37341736 8.2662616 41.38759705 9.34778503 41.40220642 10.46208191 C41.17173767 13.24723816 41.17173767 13.24723816 39.17173767 15.24723816 C36.46617126 15.47428894 36.46617126 15.47428894 33.07017517 15.44255066 C31.85845642 15.43610535 30.64673767 15.42966003 29.39830017 15.42301941 C28.12728455 15.4062616 26.85626892 15.38950378 25.54673767 15.37223816 C24.26798767 15.36321472 22.98923767 15.35419128 21.67173767 15.34489441 C18.504886 15.32126119 15.33840343 15.28831445 12.17173767 15.24723816 C12.17173767 18.21723816 12.17173767 21.18723816 12.17173767 24.24723816 C12.85800232 24.24200134 13.54426697 24.23676453 14.25132751 24.23136902 C17.34978831 24.2106286 20.44823453 24.1975874 23.54673767 24.18473816 C24.62697205 24.17635925 25.70720642 24.16798035 26.82017517 24.15934753 C28.36705017 24.15451355 28.36705017 24.15451355 29.94517517 24.14958191 C30.89827576 24.14434509 31.85137634 24.13910828 32.83335876 24.13371277 C35.17173767 24.24723816 35.17173767 24.24723816 37.17173767 25.24723816 C37.1986032 27.22633214 37.21807143 29.20552787 37.23423767 31.18473816 C37.24583923 32.2868866 37.2574408 33.38903503 37.26939392 34.52458191 C37.17173767 37.24723816 37.17173767 37.24723816 36.17173767 38.24723816 C34.39102521 38.33450039 32.60690627 38.35422857 30.82408142 38.34489441 C29.74449158 38.34167175 28.66490173 38.3384491 27.55259705 38.33512878 C26.41628845 38.32674988 25.27997986 38.31837097 24.10923767 38.30973816 C22.96906189 38.30522644 21.82888611 38.30071472 20.65415955 38.29606628 C17.82666349 38.28423576 14.99919422 38.26629966 12.17173767 38.24723816 C12.17173767 41.87723816 12.17173767 45.50723816 12.17173767 49.24723816 C13.04499695 49.24200134 13.91825623 49.23676453 14.81797791 49.23136902 C18.0476304 49.21436065 21.27726012 49.20180447 24.50694275 49.19230652 C25.90668995 49.18726736 27.30643187 49.18043599 28.7061615 49.17179871 C30.71419544 49.15971496 32.72226725 49.15454009 34.73033142 49.14958191 C36.54488831 49.14172668 36.54488831 49.14172668 38.39610291 49.13371277 C41.17173767 49.24723816 41.17173767 49.24723816 42.17173767 50.24723816 C42.27047583 52.24523388 42.30145566 54.24680974 42.29673767 56.24723816 C42.30060486 57.88692566 42.30060486 57.88692566 42.30455017 59.55973816 C42.17173767 62.24723816 42.17173767 62.24723816 41.17173767 63.24723816 C39.79563885 63.34519127 38.41459885 63.37521904 37.03501892 63.37663269 C35.71860413 63.38136093 35.71860413 63.38136093 34.37559509 63.38618469 C33.42144714 63.38416046 32.46729919 63.38213623 31.48423767 63.38005066 C30.02497864 63.38148575 30.02497864 63.38148575 28.53623962 63.38294983 C26.47495967 63.38363174 24.41367759 63.38177668 22.35240173 63.37760925 C19.18536079 63.37226116 16.01846167 63.37755388 12.85142517 63.38395691 C10.85402902 63.38329613 8.85663296 63.38201497 6.85923767 63.38005066 C5.90508972 63.38207489 4.95094177 63.38409912 3.96788025 63.38618469 C3.09027039 63.38303253 2.21266052 63.37988037 1.30845642 63.37663269 C0.53203796 63.3758371 -0.24438049 63.3750415 -1.04432678 63.3742218 C-2.82826233 63.24723816 -2.82826233 63.24723816 -3.82826233 62.24723816 C-3.93260851 60.3863324 -3.9668087 58.5214554 -3.973526 56.65763855 C-3.97990585 55.46292435 -3.98628571 54.26821014 -3.99285889 53.03729248 C-3.99397171 51.73630112 -3.99508453 50.43530975 -3.99623108 49.09489441 C-3.99944209 47.75589969 -4.00280603 46.41690534 -4.00631714 45.07791138 C-4.01231441 42.26756476 -4.01415644 39.45724893 -4.01356506 36.64689636 C-4.01346342 33.04077456 -4.02711478 29.43484958 -4.04433727 25.82877445 C-4.05544092 23.06216521 -4.05748478 20.29560378 -4.05695534 17.52897453 C-4.05871422 15.55134501 -4.06956585 13.57373041 -4.08050537 11.59613037 C-4.07742874 10.39826401 -4.07435211 9.20039764 -4.07118225 7.9662323 C-4.07260727 6.90779617 -4.07403229 5.84936005 -4.07550049 4.7588501 C-3.77953539 1.75223703 -3.13722555 0.42425086 0 0 Z " fill="#571845" transform="translate(193.82826232910156,124.75276184082031)"/>
<path d="M0 0 C1.45599609 0.00580078 1.45599609 0.00580078 2.94140625 0.01171875 C5.4375 0.3125 5.4375 0.3125 7.4375 2.3125 C7.75634766 5.29345703 7.75634766 5.29345703 7.8515625 9.0703125 C7.87092865 9.73336395 7.8902948 10.39641541 7.9102478 11.07955933 C7.97005954 13.19874177 8.01643388 15.3179785 8.0625 17.4375 C8.10067845 18.87372169 8.13973011 20.30992045 8.1796875 21.74609375 C8.27576125 25.26801936 8.35978642 28.79011608 8.4375 32.3125 C9.56627111 31.05545945 10.69036817 29.79422083 11.8125 28.53125 C12.43898438 27.82935547 13.06546875 27.12746094 13.7109375 26.40429688 C15.44260318 24.43345113 15.44260318 24.43345113 16.4765625 22.45507812 C17.4375 20.8125 17.4375 20.8125 20.4375 18.3125 C25.48877465 17.80358273 30.37999943 17.96897166 35.4375 18.3125 C35.9325 19.7975 35.9325 19.7975 36.4375 21.3125 C35.85742188 21.9415625 35.27734375 22.570625 34.6796875 23.21875 C33.89851563 24.0746875 33.11734375 24.930625 32.3125 25.8125 C31.16394531 27.06546875 31.16394531 27.06546875 29.9921875 28.34375 C26.95582505 31.87224458 24.18845096 35.55981209 21.4375 39.3125 C21.81559814 39.83158936 22.19369629 40.35067871 22.58325195 40.88549805 C24.30764471 43.25544762 26.02884599 45.6276974 27.75 48 C28.64235352 49.22493164 28.64235352 49.22493164 29.55273438 50.47460938 C36.03976068 59.42598087 36.03976068 59.42598087 37.4375 62.3125 C37.1075 63.3025 36.7775 64.2925 36.4375 65.3125 C31.42221596 66.21525113 26.32676568 67.07558025 21.4375 65.3125 C16.82070315 61.38322615 14.01210663 55.70402918 11.4375 50.3125 C11.4375 49.6525 11.4375 48.9925 11.4375 48.3125 C10.4475 48.9725 9.4575 49.6325 8.4375 50.3125 C7.88822038 53.62617309 7.88822038 53.62617309 7.8125 57.375 C7.52021474 64.22978526 7.52021474 64.22978526 6.4375 65.3125 C4.10589945 65.41159302 1.77120058 65.44220504 -0.5625 65.4375 C-1.84125 65.44007813 -3.12 65.44265625 -4.4375 65.4453125 C-7.5625 65.3125 -7.5625 65.3125 -8.5625 64.3125 C-8.67214439 62.42641155 -8.71160388 60.53620712 -8.72363281 58.64697266 C-8.73324036 57.43546539 -8.7428479 56.22395813 -8.75274658 54.97573853 C-8.75699646 53.65601044 -8.76124634 52.33628235 -8.765625 50.9765625 C-8.77137439 49.6175435 -8.77713215 48.25852454 -8.78289795 46.89950562 C-8.79341697 44.04628114 -8.79925356 41.19308491 -8.80273438 38.33984375 C-8.80821799 34.68217243 -8.83223883 31.02487361 -8.86070633 27.36731911 C-8.87932383 24.55863351 -8.88453784 21.75003772 -8.88607025 18.94129562 C-8.8905745 16.93653818 -8.90922698 14.93182878 -8.92803955 12.92715454 C-8.92503845 11.70934296 -8.92203735 10.49153137 -8.91894531 9.23681641 C-8.92259094 8.162836 -8.92623657 7.08885559 -8.92999268 5.98233032 C-8.5625 3.3125 -8.5625 3.3125 -7.20452881 1.4649353 C-4.8018898 -0.2213238 -2.89992996 -0.05019852 0 0 Z " fill="#571745" transform="translate(246.5625,122.6875)"/>
<path d="M0 0 C4.51379709 3.74855876 6.036427 8.36035458 7 14 C7.21069831 17.00810347 7.19289248 19.98661834 7.125 23 C7.11597656 23.77472656 7.10695313 24.54945313 7.09765625 25.34765625 C7.07439388 27.23190843 7.0385364 29.11599832 7 31 C7.66 31 8.32 31 9 31 C9 35.29 9 39.58 9 44 C5.42365687 45.19211438 2.75935317 45.25926574 -1 45 C-3.75 43.5 -3.75 43.5 -6 42 C-9.11932168 41.78006628 -9.11932168 41.78006628 -12.0625 43.5 C-17.71108938 46.01314358 -23.52420658 45.8408355 -29.3125 43.875 C-33.08952297 41.23986769 -35.91624735 38.1675053 -38 34 C-38.56735892 29.34951706 -38.4598631 25.90269423 -36.3125 21.6875 C-32.39572506 17.13557236 -28.92740462 14.31720103 -23 13 C-13.58108108 12.47297297 -13.58108108 12.47297297 -9 14 C-10.3089572 10.87802522 -10.3089572 10.87802522 -13 9 C-18.70699851 8.61953343 -21.97041147 9.0061973 -27 12 C-29 13 -29 13 -30.9375 12.375 C-33.59743692 10.60170872 -34.63242248 8.87191279 -36 6 C-36 4.68 -36 3.36 -36 2 C-34.41925436 1.18247697 -32.83528777 0.37118003 -31.25 -0.4375 C-30.36828125 -0.88996094 -29.4865625 -1.34242188 -28.578125 -1.80859375 C-19.6436339 -5.93741161 -8.22181775 -5.52698396 0 0 Z M-23 26 C-23.5 28.5 -23.5 28.5 -23 31 C-20.12262918 33.35099848 -20.12262918 33.35099848 -16.5625 32.8125 C-13.16237111 32.03703201 -11.52267597 31.32086189 -9 29 C-9.33 27.35 -9.66 25.7 -10 24 C-11.60379341 23.94583812 -13.20811406 23.90713362 -14.8125 23.875 C-15.70582031 23.85179687 -16.59914063 23.82859375 -17.51953125 23.8046875 C-20.25402714 23.81714173 -20.25402714 23.81714173 -23 26 Z " fill="#571745" transform="translate(318,144)"/>
<path d="M0 0 C1.47326086 0.80914757 2.91737465 1.67261085 4.3359375 2.57421875 C5.15320313 3.07630859 5.97046875 3.57839844 6.8125 4.09570312 C8.52049064 5.15668816 10.2210975 6.22965324 11.9140625 7.31445312 C16.75188966 10.39720769 16.75188966 10.39720769 22.2890625 10.515625 C23.63097656 9.76539062 23.63097656 9.76539062 25 9 C26.2684375 8.30583984 26.2684375 8.30583984 27.5625 7.59765625 C28.366875 7.09105469 29.17125 6.58445312 30 6.0625 C30.85980469 5.5365625 31.71960938 5.010625 32.60546875 4.46875 C33.39566406 3.9840625 34.18585938 3.499375 35 3 C40.19762259 -0.04011887 40.19762259 -0.04011887 43.5 0.125 C46.48372139 1.16930249 49.21461395 2.51014235 52 4 C52 4.66 52 5.32 52 6 C51.30438965 6.37286133 50.6087793 6.74572266 49.89208984 7.12988281 C46.71805191 8.83348938 43.54651367 10.54169909 40.375 12.25 C39.28058594 12.83652344 38.18617188 13.42304688 37.05859375 14.02734375 C30.6108967 17.45401425 30.6108967 17.45401425 24.5390625 21.484375 C22 23 22 23 19.43359375 22.91015625 C16.8225653 21.93363999 14.49026131 20.81036348 12.0625 19.4375 C11.11375 18.90253906 10.165 18.36757812 9.1875 17.81640625 C7.6096875 16.91728516 7.6096875 16.91728516 6 16 C4.77149862 15.32041055 3.54230662 14.64206834 2.3125 13.96484375 C1.06220382 13.26876089 -0.18780007 12.57215275 -1.4375 11.875 C-2.02845459 11.55072021 -2.61940918 11.22644043 -3.22827148 10.89233398 C-6.6537104 8.95868965 -9.36073054 6.9181112 -12 4 C-10.76055724 3.13058506 -9.50792941 2.27994543 -8.25 1.4375 C-7.55390625 0.96183594 -6.8578125 0.48617187 -6.140625 -0.00390625 C-3.47808592 -1.24286148 -2.73598234 -0.92574591 0 0 Z " fill="#F8F3F7" transform="translate(104,117)"/>
<path d="M0 0 C2.875 1.4375 2.875 1.4375 5 3 C5 3.66 5 4.32 5 5 C4.06317383 5.50599731 4.06317383 5.50599731 3.10742188 6.0222168 C0.23682885 7.57464243 -2.63159163 9.13104177 -5.5 10.6875 C-6.48226562 11.21794922 -7.46453125 11.74839844 -8.4765625 12.29492188 C-12.91119491 14.70440548 -17.23001772 17.12021558 -21.40625 19.95703125 C-23.74392664 21.42042338 -24.68517871 21.98760546 -27.48046875 22.09765625 C-31.24266655 20.45862124 -34.7703552 18.5045425 -38.3125 16.4375 C-39.05306641 16.01275391 -39.79363281 15.58800781 -40.55664062 15.15039062 C-42.37468118 14.10648347 -44.18783748 13.05407808 -46 12 C-46 11.01 -46 10.02 -46 9 C-39.28231562 5.25059477 -39.28231562 5.25059477 -35 6 C-34.030625 6.680625 -33.06125 7.36125 -32.0625 8.0625 C-29.21563633 10.21787149 -29.21563633 10.21787149 -26.25 10.125 C-20.69984232 8.20379157 -15.88623133 4.91659369 -11.01171875 1.6796875 C-6.93348098 -0.90651206 -4.62133948 -1.50695853 0 0 Z " fill="#F8F4F7" transform="translate(151,144)"/>
<path d="M0 0 C3.37493283 0.860277 6.13985166 2.14354972 9.1875 3.8125 C6.83314021 6.42776002 4.3906213 7.94222965 1.29296875 9.58984375 C0.33712891 10.10353516 -0.61871094 10.61722656 -1.60351562 11.14648438 C-2.60060547 11.67564453 -3.59769531 12.20480469 -4.625 12.75 C-12.15433221 16.67819281 -12.15433221 16.67819281 -19.33984375 21.18359375 C-21.8125 22.8125 -21.8125 22.8125 -24.5625 22.9375 C-31.5722191 20.51105877 -37.7202455 15.98088466 -43.8125 11.8125 C-39.95713262 8.19079125 -37.14750995 6.8125 -31.8125 6.8125 C-29.78793152 8.10822383 -27.78571053 9.4398318 -25.8125 10.8125 C-21.09505253 10.53647914 -17.23831402 8.11006829 -13.1875 5.875 C-12.51976562 5.51470703 -11.85203125 5.15441406 -11.1640625 4.78320312 C-2.09767547 -0.13984503 -2.09767547 -0.13984503 0 0 Z " fill="#F7F2F6" transform="translate(147.8125,168.1875)"/>
<path d="M0 0 C3.72082257 1.95013584 7.21190043 4.28060433 10.72265625 6.58203125 C15.03668326 9.27664923 15.03668326 9.27664923 19.96875 10.12890625 C25.13926869 8.20328782 29.70420584 5.25021268 34.3671875 2.33007812 C40.22582673 -1.13677657 40.22582673 -1.13677657 44.3828125 -0.40234375 C46.97998564 0.98927589 49.52568031 2.39896961 52 4 C51.67 4.66 51.34 5.32 51 6 C50.113125 5.690625 49.22625 5.38125 48.3125 5.0625 C47.219375 4.711875 46.12625 4.36125 45 4 C44.27039063 3.72414063 43.54078125 3.44828125 42.7890625 3.1640625 C38.46552991 2.90973705 35.6621514 5.08987402 32.0625 7.3125 C29.39892869 8.92158556 26.71848064 10.48552906 24 12 C23.04222656 12.53625 22.08445313 13.0725 21.09765625 13.625 C15.99302505 14.24296292 12.56883489 11.37478036 8.375 8.6875 C6.69783692 7.6456647 5.01823454 6.60774351 3.3359375 5.57421875 C2.59907715 5.10588623 1.8622168 4.63755371 1.10302734 4.1550293 C-0.97249189 3.01510807 -2.66607997 2.36669723 -5 2 C-6.96467579 2.72751465 -6.96467579 2.72751465 -8.75 3.9375 C-9.8225 4.618125 -10.895 5.29875 -12 6 C-12 6.66 -12 7.32 -12 8 C-12.99 7.67 -13.98 7.34 -15 7 C-15.33 28.12 -15.66 49.24 -16 71 C-16.33 71 -16.66 71 -17 71 C-17.20886274 62.62896677 -17.36860296 54.2590277 -17.46630955 45.8860302 C-17.51321428 41.99762607 -17.57678222 38.11100851 -17.67895508 34.22363281 C-17.77701014 30.46927595 -17.83060817 26.71663265 -17.85389519 22.9610939 C-17.87048027 21.53115987 -17.9028726 20.10131613 -17.95157051 18.67211533 C-18.31816396 7.4637386 -18.31816396 7.4637386 -15.00680542 3.78668213 C-12.72083796 2.23926593 -10.54329025 1.06073063 -8 0 C-4.96243675 -1.51878162 -3.28232665 -0.85069475 0 0 Z " fill="#672454" transform="translate(105,115)"/>
<path d="M0 0 C1.36450216 2.72900433 0.9966507 4.71061715 0.84375 7.75976562 C0.56894579 13.80565964 0.35873825 19.84775034 0.20132446 25.8975296 C0.10167318 29.55716832 -0.02851092 33.21052926 -0.22753906 36.86621094 C-1.73147328 52.24612693 -1.73147328 52.24612693 2.59634399 66.26382446 C6.51273991 69.75042701 10.86304349 71.58070406 15.80073547 73.19111633 C19.40300005 74.5160197 22.49134627 76.59358789 25.6875 78.6875 C29.9397913 81.40856533 29.9397913 81.40856533 34.78930664 81.7902832 C38.42595853 80.89515415 41.16578816 79.50390793 44.421875 77.65625 C45.00793518 77.32709595 45.59399536 76.99794189 46.19781494 76.65881348 C48.05341332 75.61423076 49.90172057 74.55746851 51.75 73.5 C53.00603863 72.78952986 54.26254508 72.07988611 55.51953125 71.37109375 C57.81259678 70.07739661 60.10209094 68.7780881 62.38964844 67.47460938 C63.90825548 66.61673559 65.43997057 65.78001472 67 65 C67.39338548 62.01962537 67.39338548 62.01962537 67.5 58.5625 C67.77841561 52.22158439 67.77841561 52.22158439 70 50 C70 55.28 70 60.56 70 66 C68.13214844 67.03640625 66.26429688 68.0728125 64.33984375 69.140625 C62.50946344 70.15663377 60.67916636 71.17279232 58.84887695 72.18896484 C57.58724495 72.88931645 56.32552793 73.58951493 55.0637207 74.28955078 C53.8381223 74.96952267 52.61274677 75.64989643 51.38760376 76.33068848 C50.19421583 76.99280617 48.99970299 77.65290059 47.80404663 78.31091309 C44.80443257 79.96702603 41.88925299 81.7011426 39.00390625 83.546875 C35.33957919 85.31947535 33.84287451 85.2317558 30 84 C22.51259567 80.59750818 15.49789795 76.18435618 8.6328125 71.67578125 C6.55610333 70.35395895 4.47409998 69.11048442 2.33544922 67.89526367 C1.23475098 67.26982666 0.13405273 66.64438965 -1 66 C-1.02312659 57.54232666 -1.0409167 49.08466644 -1.05181217 40.62696934 C-1.05704031 36.70011342 -1.06413669 32.77327906 -1.07543945 28.84643555 C-1.0862708 25.05985743 -1.09227736 21.2733001 -1.09487724 17.48670769 C-1.09673105 16.03895681 -1.10035081 14.59120712 -1.10573006 13.14346504 C-1.11294367 11.12242865 -1.11340808 9.10137152 -1.11352539 7.08032227 C-1.115746 5.92782486 -1.11796661 4.77532745 -1.12025452 3.58790588 C-1 1 -1 1 0 0 Z " fill="#5B1A48" transform="translate(90,121)"/>
<path d="M0 0 C3 1 3 1 4.1875 3.0625 C4.455625 3.701875 4.72375 4.34125 5 5 C4.67 3.68 4.34 2.36 4 1 C6.6666419 -0.33332095 8.16680303 0.32897967 11 1 C11 1.99 11 2.98 11 4 C12.32 2.68 13.64 1.36 15 0 C16 3 16 3 15.00390625 5.48046875 C14.52824219 6.37378906 14.05257813 7.26710937 13.5625 8.1875 C13.08941406 9.08855469 12.61632812 9.98960937 12.12890625 10.91796875 C11.57009766 11.94857422 11.57009766 11.94857422 11 13 C10.01 12.34 9.02 11.68 8 11 C5.84725052 11.30840599 5.84725052 11.30840599 4 12 C3.32332002 10.75539217 2.65905281 9.50403104 2 8.25 C1.62875 7.55390625 1.2575 6.8578125 0.875 6.140625 C0 4 0 4 0 0 Z " fill="#5C1C4A" transform="translate(270,198)"/>
<path d="M0 0 C3 1 3 1 4.1875 3.0625 C4.455625 3.701875 4.72375 4.34125 5 5 C5.804375 4.175 6.60875 3.35 7.4375 2.5 C10 0 10 0 11 0 C11 3.96 11 7.92 11 12 C10.01 12 9.02 12 8 12 C7.67 11.34 7.34 10.68 7 10 C6.01 10 5.02 10 4 10 C3.01 11.485 3.01 11.485 2 13 C1.01 12.67 0.02 12.34 -1 12 C-1.02687279 10.18757948 -1.04633715 8.37504767 -1.0625 6.5625 C-1.07410156 5.55316406 -1.08570313 4.54382813 -1.09765625 3.50390625 C-1 1 -1 1 0 0 Z " fill="#5C1B49" transform="translate(372,198)"/>
<path d="M0 0 C0 0.66 0 1.32 0 2 C-1.051875 2.103125 -2.10375 2.20625 -3.1875 2.3125 C-6.88628113 2.97949332 -9.02986811 3.74990008 -12 6 C-12 6.66 -12 7.32 -12 8 C-12.99 7.67 -13.98 7.34 -15 7 C-15.33 28.12 -15.66 49.24 -16 71 C-16.33 71 -16.66 71 -17 71 C-17.20886274 62.62896677 -17.36860296 54.2590277 -17.46630955 45.8860302 C-17.51321428 41.99762607 -17.57678222 38.11100851 -17.67895508 34.22363281 C-17.77701014 30.46927595 -17.83060817 26.71663265 -17.85389519 22.9610939 C-17.87048027 21.53115987 -17.9028726 20.10131613 -17.95157051 18.67211533 C-18.31816396 7.4637386 -18.31816396 7.4637386 -15.00680542 3.78668213 C-12.72083796 2.23926593 -10.54329025 1.06073063 -8 0 C-5.13822943 -1.43088528 -3.06624227 -0.59991697 0 0 Z " fill="#632451" transform="translate(105,115)"/>
<path d="M0 0 C1.65 1.65 3.3 3.3 5 5 C5.268125 4.360625 5.53625 3.72125 5.8125 3.0625 C7 1 7 1 10 0 C11 1 11 1 11.09765625 3.50390625 C11.08605469 4.51324219 11.07445312 5.52257812 11.0625 6.5625 C11.05347656 7.57441406 11.04445312 8.58632812 11.03515625 9.62890625 C11.02355469 10.41136719 11.01195312 11.19382813 11 12 C10.01 12 9.02 12 8 12 C7.67 11.01 7.34 10.02 7 9 C5.02463255 9.34786708 5.02463255 9.34786708 3 10 C2.67 10.66 2.34 11.32 2 12 C1.01 12 0.02 12 -1 12 C-1.02687279 10.18757948 -1.04633715 8.37504767 -1.0625 6.5625 C-1.07410156 5.55316406 -1.08570313 4.54382813 -1.09765625 3.50390625 C-1 1 -1 1 0 0 Z " fill="#5B1A48" transform="translate(201,198)"/>
<path d="M0 0 C2.69082872 0.17635452 5.32851446 0.61835921 8 1 C8.79953138 4.28696233 9.09658936 5.71023192 8 9 C8.33 9.99 8.66 10.98 9 12 C7.68 12 6.36 12 5 12 C4.67 11.34 4.34 10.68 4 10 C3.67 10.66 3.34 11.32 3 12 C1.68 12 0.36 12 -1 12 C-1.02687279 10.18757948 -1.04633715 8.37504767 -1.0625 6.5625 C-1.07410156 5.55316406 -1.08570313 4.54382813 -1.09765625 3.50390625 C-1 1 -1 1 0 0 Z M3 4 C3 4.66 3 5.32 3 6 C3.66 6 4.32 6 5 6 C5 5.34 5 4.68 5 4 C4.34 4 3.68 4 3 4 Z " fill="#5D1D4B" transform="translate(315,198)"/>
<path d="M0 0 C0.66 0.33 1.32 0.66 2 1 C2 2.32 2 3.64 2 5 C2.99 4.67 3.98 4.34 5 4 C5.73323796 1.98491642 5.73323796 1.98491642 6 0 C6.99 0.33 7.98 0.66 9 1 C9 4.63 9 8.26 9 12 C7.68 12 6.36 12 5 12 C5 10.68 5 9.36 5 8 C4.01 8 3.02 8 2 8 C2 9.32 2 10.64 2 12 C0.68 11.67 -0.64 11.34 -2 11 C-2.05399736 9.54207116 -2.09279177 8.08357288 -2.125 6.625 C-2.15980469 5.40683594 -2.15980469 5.40683594 -2.1953125 4.1640625 C-2 2 -2 2 0 0 Z " fill="#5D1D4A" transform="translate(290,198)"/>
<path d="M0 0 C1.134375 0.020625 2.26875 0.04125 3.4375 0.0625 C3.4375 1.3825 3.4375 2.7025 3.4375 4.0625 C3.58447979 5.64778205 3.75147926 7.2313237 3.9375 8.8125 C4.1025 10.215 4.2675 11.6175 4.4375 13.0625 C1.4675 12.7325 -1.5025 12.4025 -4.5625 12.0625 C-4.58937279 10.25007948 -4.60883715 8.43754767 -4.625 6.625 C-4.63660156 5.61566406 -4.64820313 4.60632813 -4.66015625 3.56640625 C-4.50618986 -0.38129207 -4.09874205 0.07190776 0 0 Z " fill="#5C1C4A" transform="translate(306.5625,197.9375)"/>
<path d="M0 0 C6.72 0.72 6.72 0.72 8 2 C8.07205511 3.68608966 8.08386068 5.37500659 8.0625 7.0625 C8.05347656 7.98160156 8.04445313 8.90070313 8.03515625 9.84765625 C8.02355469 10.55792969 8.01195312 11.26820313 8 12 C4.125 11.125 4.125 11.125 3 10 C2.67 10.66 2.34 11.32 2 12 C1.01 12 0.02 12 -1 12 C-1.02687279 10.18757948 -1.04633715 8.37504767 -1.0625 6.5625 C-1.07410156 5.55316406 -1.08570313 4.54382813 -1.09765625 3.50390625 C-1 1 -1 1 0 0 Z M2 4 C2 4.66 2 5.32 2 6 C2.99 6 3.98 6 5 6 C5 5.34 5 4.68 5 4 C4.01 4 3.02 4 2 4 Z " fill="#5B1A48" transform="translate(436,198)"/>
<path d="M0 0 C1.134375 0.020625 2.26875 0.04125 3.4375 0.0625 C3.4375 1.3825 3.4375 2.7025 3.4375 4.0625 C1.7875 4.3925 0.1375 4.7225 -1.5625 5.0625 C0.0875 5.0625 1.7375 5.0625 3.4375 5.0625 C3.7675 7.3725 4.0975 9.6825 4.4375 12.0625 C1.4675 12.0625 -1.5025 12.0625 -4.5625 12.0625 C-4.58937279 10.25007948 -4.60883715 8.43754767 -4.625 6.625 C-4.63660156 5.61566406 -4.64820313 4.60632813 -4.66015625 3.56640625 C-4.50618986 -0.38129207 -4.09874205 0.07190776 0 0 Z " fill="#5C1B49" transform="translate(331.5625,197.9375)"/>
<path d="M0 0 C1.134375 0.020625 2.26875 0.04125 3.4375 0.0625 C3.4375 1.3825 3.4375 2.7025 3.4375 4.0625 C1.7875 4.3925 0.1375 4.7225 -1.5625 5.0625 C0.0875 5.0625 1.7375 5.0625 3.4375 5.0625 C3.7675 7.3725 4.0975 9.6825 4.4375 12.0625 C1.4675 12.0625 -1.5025 12.0625 -4.5625 12.0625 C-5.92338895 7.97983314 -5.24648693 5.30321899 -4.5625 1.0625 C-3.5625 0.0625 -3.5625 0.0625 0 0 Z " fill="#5C1D4A" transform="translate(427.5625,197.9375)"/>
<path d="M0 0 C0 0.99 0 1.98 0 3 C-1.65 3 -3.3 3 -5 3 C-2.525 3.99 -2.525 3.99 0 5 C0 6.65 0 8.3 0 10 C-4.43076923 12.09230769 -4.43076923 12.09230769 -7.3125 11.625 C-7.869375 11.41875 -8.42625 11.2125 -9 11 C-9 9.68 -9 8.36 -9 7 C-8.01 7 -7.02 7 -6 7 C-6.99 6.34 -7.98 5.68 -9 5 C-8.625 2.5625 -8.625 2.5625 -8 0 C-5.13822943 -1.43088528 -3.06624227 -0.59991697 0 0 Z " fill="#5C1C4A" transform="translate(456,199)"/>
<path d="M0 0 C3.125 0.25 3.125 0.25 5.0625 1.4375 C6.125 3.25 6.125 3.25 5.8125 5.9375 C5.585625 6.700625 5.35875 7.46375 5.125 8.25 C3.475 8.58 1.825 8.91 0.125 9.25 C0.125 10.24 0.125 11.23 0.125 12.25 C-1.195 11.92 -2.515 11.59 -3.875 11.25 C-3.90188151 9.60425434 -3.92134123 7.95838587 -3.9375 6.3125 C-3.94910156 5.39597656 -3.96070313 4.47945312 -3.97265625 3.53515625 C-3.82640861 0.11296148 -3.46202801 0.30104591 0 0 Z M0.125 4.25 C-0.205 4.91 -0.535 5.57 -0.875 6.25 C0.445 5.92 1.765 5.59 3.125 5.25 C2.135 4.92 1.145 4.59 0.125 4.25 Z " fill="#5C1C4A" transform="translate(218.875,197.75)"/>
<path d="M0 0 C0.33 1.32 0.66 2.64 1 4 C-0.65 3.67 -2.3 3.34 -4 3 C-4.33 4.32 -4.66 5.64 -5 7 C-2.69 7 -0.38 7 2 7 C0.5511811 10.74278215 0.5511811 10.74278215 -1.875 11.875 C-4.58391456 12.03434792 -5.78192408 11.55265314 -8 10 C-9.4375 8.25 -9.4375 8.25 -10 6 C-7.61936948 -0.07060782 -6.31386191 -1.49538835 0 0 Z " fill="#5C1B49" transform="translate(248,199)"/>
<path d="M0 0 C3.3 0 6.6 0 10 0 C9.67 1.32 9.34 2.64 9 4 C8.34 4 7.68 4 7 4 C7 6.64 7 9.28 7 12 C5.68 11.67 4.36 11.34 3 11 C3 8.69 3 6.38 3 4 C2.01 3.67 1.02 3.34 0 3 C0 2.01 0 1.02 0 0 Z " fill="#5E1E4B" transform="translate(410,198)"/>
<path d="M0 0 C1.8125 0.0625 1.8125 0.0625 4 1 C5.81278756 4.4960903 7 7.03981755 7 11 C5.68 10.67 4.36 10.34 3 10 C3 9.34 3 8.68 3 8 C2.01 8 1.02 8 0 8 C-0.33 8.99 -0.66 9.98 -1 11 C-1.99 11 -2.98 11 -4 11 C-3.52269162 9.5410574 -3.04308958 8.08286504 -2.5625 6.625 C-2.29566406 5.81289062 -2.02882813 5.00078125 -1.75390625 4.1640625 C-1 2 -1 2 0 0 Z M1 4 C2 6 2 6 2 6 Z " fill="#5B1A48" transform="translate(390,199)"/>
<path d="M0 0 C1.890625 0.18359375 1.890625 0.18359375 4 1 C5.046875 3.28515625 5.046875 3.28515625 5.75 6.0625 C5.99234375 6.98160156 6.2346875 7.90070313 6.484375 8.84765625 C6.65453125 9.55792969 6.8246875 10.26820313 7 11 C6.01 11 5.02 11 4 11 C3.67 10.34 3.34 9.68 3 9 C2.01 8.67 1.02 8.34 0 8 C-0.66 9.32 -1.32 10.64 -2 12 C-2.66 11.67 -3.32 11.34 -4 11 C-3.52269162 9.5410574 -3.04308958 8.08286504 -2.5625 6.625 C-2.29566406 5.81289062 -2.02882812 5.00078125 -1.75390625 4.1640625 C-1 2 -1 2 0 0 Z M1 4 C2 6 2 6 2 6 Z " fill="#5B1948" transform="translate(230,199)"/>
<path d="M0 0 C3.3 0 6.6 0 10 0 C9.67 1.32 9.34 2.64 9 4 C8.34 4 7.68 4 7 4 C7 6.64 7 9.28 7 12 C6.01 12 5.02 12 4 12 C4 9.36 4 6.72 4 4 C2.68 3.67 1.36 3.34 0 3 C0 2.01 0 1.02 0 0 Z " fill="#5D1E4B" transform="translate(398,198)"/>
<path d="M0 0 C2.97 0 5.94 0 9 0 C9.33 0.99 9.66 1.98 10 3 C9.01 3.33 8.02 3.66 7 4 C6.67 6.97 6.34 9.94 6 13 C5.01 12.67 4.02 12.34 3 12 C3 9.36 3 6.72 3 4 C2.01 4 1.02 4 0 4 C0 2.68 0 1.36 0 0 Z " fill="#5C1C4A" transform="translate(352,198)"/>
<path d="M0 0 C2.97 0 5.94 0 9 0 C9.33 0.66 9.66 1.32 10 2 C9.67 2.66 9.34 3.32 9 4 C8.34 4 7.68 4 7 4 C6.67 6.64 6.34 9.28 6 12 C5.01 12 4.02 12 3 12 C2.67 9.36 2.34 6.72 2 4 C1.34 4 0.68 4 0 4 C0 2.68 0 1.36 0 0 Z " fill="#5C1B49" transform="translate(252,198)"/>
<path d="M0 0 C1.32 0.33 2.64 0.66 4 1 C4 6.28 4 11.56 4 17 C-4.75 22 -4.75 22 -7 22 C-7 21.34 -7 20.68 -7 20 C-0.25 16 -0.25 16 2 16 C1.85936865 13.70800823 1.71234057 11.41640814 1.5625 9.125 C1.44068359 7.21074219 1.44068359 7.21074219 1.31640625 5.2578125 C1.20793973 2.11699848 1.20793973 2.11699848 0 0 Z " fill="#5B1A48" transform="translate(156,120)"/>
<path d="M0 0 C4.19185488 1.51787616 7.90793875 3.60470172 11.6875 5.9375 C12.26822266 6.28490234 12.84894531 6.63230469 13.44726562 6.99023438 C16.4035708 8.8050298 18.04355515 10.06533273 20 13 C14.82064939 11.53171057 10.65626588 9.18508737 6.125 6.375 C5.43664062 5.95476562 4.74828125 5.53453125 4.0390625 5.1015625 C2.35608342 4.07307528 0.67757468 3.037279 -1 2 C-0.67 1.34 -0.34 0.68 0 0 Z " fill="#6F2F5D" transform="translate(105,116)"/>
<path d="M0 0 C0.66 0 1.32 0 2 0 C2 0.66 2 1.32 2 2 C2.8971875 2.1546875 2.8971875 2.1546875 3.8125 2.3125 C6.28243264 3.08876455 7.32251235 4.07088921 9 6 C2.25 10 2.25 10 0 10 C0 6.7 0 3.4 0 0 Z " fill="#EBDEE7" transform="translate(102,168)"/>
<path d="M0 0 C3.65832872 0.91458218 5.87701826 2.00476166 9 4 C6.47043472 7.0916909 3.77545388 7.90931332 0 9 C0 6.03 0 3.06 0 0 Z " fill="#F2EAF0" transform="translate(102,144)"/>
<path d="M0 0 C0 0.66 0 1.32 0 2 C-2.44921875 3.69140625 -2.44921875 3.69140625 -5.6875 5.5625 C-6.74324219 6.18253906 -7.79898438 6.80257812 -8.88671875 7.44140625 C-11.69452023 8.84706847 -13.91241774 9.58183023 -17 10 C-17.33 9.34 -17.66 8.68 -18 8 C-15.3773768 6.66180502 -12.75213401 5.3292849 -10.125 4 C-9.00544922 3.42765625 -9.00544922 3.42765625 -7.86328125 2.84375 C-7.14785156 2.4828125 -6.43242187 2.121875 -5.6953125 1.75 C-5.03547363 1.41484375 -4.37563477 1.0796875 -3.69580078 0.734375 C-2 0 -2 0 0 0 Z " fill="#652251" transform="translate(141,118)"/>
<path d="M0 0 C0.66 0.33 1.32 0.66 2 1 C2 4.63 2 8.26 2 12 C1.01 12 0.02 12 -1 12 C-1.02687279 10.18757948 -1.04633715 8.37504767 -1.0625 6.5625 C-1.07410156 5.55316406 -1.08570313 4.54382813 -1.09765625 3.50390625 C-1 1 -1 1 0 0 Z " fill="#5A1947" transform="translate(194,198)"/>
<path d="M0 0 C0.66 0.33 1.32 0.66 2 1 C2 4.63 2 8.26 2 12 C1.01 12 0.02 12 -1 12 C-1.02687279 10.18757948 -1.04633715 8.37504767 -1.0625 6.5625 C-1.07410156 5.55316406 -1.08570313 4.54382813 -1.09765625 3.50390625 C-1 1 -1 1 0 0 Z " fill="#5B1947" transform="translate(347,198)"/>
<path d="M0 0 C0.78890625 0.39445313 1.5778125 0.78890625 2.390625 1.1953125 C3.18984375 1.58460938 3.9890625 1.97390625 4.8125 2.375 C5.41578125 2.68695313 6.0190625 2.99890625 6.640625 3.3203125 C6.640625 4.3103125 6.640625 5.3003125 6.640625 6.3203125 C2.16823847 4.90223872 -2.07083806 3.20726876 -6.359375 1.3203125 C-3.87913116 -0.30663644 -2.91622054 -0.84010327 0 0 Z " fill="#702E5D" transform="translate(152.359375,166.6796875)"/>
<path d="M0 0 C3.71888239 0.50712033 6.73454239 1.11608215 10 3 C9.67 4.32 9.34 5.64 9 7 C8.34 7 7.68 7 7 7 C6 6 5 5 4 4 C1.90010348 2.82425289 1.90010348 2.82425289 0 2 C0 1.34 0 0.68 0 0 Z " fill="#72305F" transform="translate(149,142)"/>
<path d="M0 0 C2.66355234 -0.39169887 4.39224373 -0.40564529 6.66796875 1.11328125 C8.1510888 2.36389317 9.57954352 3.67864514 11 5 C10.01 5.495 10.01 5.495 9 6 C6.8359375 5.00390625 6.8359375 5.00390625 4.375 3.5625 C3.55773437 3.08941406 2.74046875 2.61632812 1.8984375 2.12890625 C1.27195312 1.75636719 0.64546875 1.38382812 0 1 C0 0.67 0 0.34 0 0 Z " fill="#773765" transform="translate(114,123)"/>
<path d="M0 0 C1.98 0.66 3.96 1.32 6 2 C6 2.99 6 3.98 6 5 C4.02 4.34 2.04 3.68 0 3 C0 2.01 0 1.02 0 0 Z " fill="#763864" transform="translate(150,116)"/>
</svg>
