<svg fill="#000000" xmlns="http://www.w3.org/2000/svg"  viewBox="0 0 24 24" width="48px" height="48px"><path d="M 4 2 C 2.895 2 2 2.895 2 4 L 2 16 C 2 17.105 2.895 18 4 18 L 16 18 C 17.105 18 18 17.105 18 16 L 18 4 C 18 2.895 17.105 2 16 2 L 4 2 z M 4 4 L 16 4 L 16 16 L 4 16 L 4 4 z M 20 6 L 20 20 L 6 20 L 6 22 L 20 22 C 21.105 22 22 21.105 22 20 L 22 6 L 20 6 z M 13.292969 6.2929688 L 9 10.585938 L 6.7070312 8.2929688 L 5.2929688 9.7070312 L 9 13.414062 L 14.707031 7.7070312 L 13.292969 6.2929688 z"/></svg>