<?xml version="1.0" encoding="utf-8"?>
<!-- Generator: Adobe Illustrator 19.2.1, SVG Export Plug-In . SVG Version: 6.00 Build 0)  -->
<svg version="1.1" id="Layer_1" xmlns="http://www.w3.org/2000/svg" xmlns:xlink="http://www.w3.org/1999/xlink" x="0px" y="0px"
	 viewBox="0 0 1008 864" style="enable-background:new 0 0 1008 864;" xml:space="preserve">
<style type="text/css">
	.st0{fill:#8FC202;}
</style>
<path class="st0" d="M272,290.8c-0.6,118.1-2.3,350.1-2.3,350.1c0,22.3,16.5,40.4,37,40.4h378.7c20.4,0,37-18.1,37-40.4l0.7-351.6
	C569.5,289.3,468,290.8,272,290.8z"/>
<path class="st0" d="M829.2,374.1c0,0-36.9,20-64.7-7.9c-27.8-27.8-6.7-63.5-6.7-63.5L920,140.6c0,0,29.6-22.4,60.5,8.5
	s10.9,62.9,10.9,62.9L829.2,374.1z"/>
<path class="st0" d="M173.2,374.1c0,0,36.9,20,64.7-7.9c27.8-27.8,6.7-63.5,6.7-63.5L82.4,140.6c0,0-29.6-22.4-60.5,8.5
	S11,212,11,212L173.2,374.1z"/>
<path class="st0" d="M639.3,807.1c0,0-12,40.2-51.3,40.2s-49.6-40.2-49.6-40.2V577.8c0,0,5.1-36.8,48.8-36.8
	c43.6,0,52.2,36.8,52.2,36.8V807.1z"/>
<path class="st0" d="M454.5,804.5c0,0-12,40.2-51.3,40.2s-49.6-40.2-49.6-40.2V575.2c0,0,5.1-36.8,48.8-36.8s52.2,36.8,52.2,36.8
	V804.5z"/>
<path class="st0" d="M723.1,236.3H723c-3.7-97.4-103.3-175.4-225.8-175.4c-124.8,0-225.9,81-225.9,181c0,5.1,0.3,10.2,0.8,15.2
	c0,1.2,0,2.5,0,3.8c147.3,0,301.8-1.3,450.9-1.3l0-16.9c0-0.3,0-0.6,0-0.9c0-0.2,0-0.4,0-0.7L723.1,236.3z M398,184.9
	c-13.7,0-24.8-11.1-24.8-24.8s11.1-24.8,24.8-24.8s24.8,11.1,24.8,24.8S411.7,184.9,398,184.9z M594.8,184.1
	c-13.7,0-24.8-11.1-24.8-24.8s11.1-24.8,24.8-24.8c13.7,0,24.8,11.1,24.8,24.8S608.5,184.1,594.8,184.1z"/>
<path class="st0" d="M603.4,90.6l43.8-62.5c0,0,5.8-10.9-0.6-15.4c-6.4-4.5-14.2,5-14.2,5l-43.8,62.5L603.4,90.6z"/>
<path class="st0" d="M393.4,90.6l-43.8-62.5c0,0-5.8-10.9,0.6-15.4c6.4-4.5,14.2,5,14.2,5l43.8,62.5L393.4,90.6z"/>
</svg>
