<svg xmlns="http://www.w3.org/2000/svg" viewBox="0 0 210 150" width="210" height="150">
  <defs>
    <style>
      .pulse-b1 { animation: pulseGlow 2.4s ease-in-out infinite; }
      .pulse-b2 { animation: pulseGlow 2.4s ease-in-out 0.3s infinite; }
      .pulse-b3 { animation: pulseGlow 2.4s ease-in-out 0.6s infinite; }
      .pulse-b4 { animation: pulseGlow 2.4s ease-in-out 0.9s infinite; }
      @keyframes pulseGlow {
        0%, 100% { opacity: 0.55; filter: brightness(0.85); }
        50%      { opacity: 1;    filter: brightness(1.15); }
      }
      .pulse-shimmer { animation: shimmer 2.4s linear infinite; }
      @keyframes shimmer {
        0%   { transform: translateX(-180px); }
        100% { transform: translateX(180px); }
      }
      .bt { font-family: sans-serif; font-size: 11px; font-weight: bold; fill: #fff; }
    </style>
    <linearGradient id="shimmerGrad" x1="0" y1="0" x2="1" y2="0">
      <stop offset="0" stop-color="#fff" stop-opacity="0"/>
      <stop offset="0.5" stop-color="#fff" stop-opacity="0.5"/>
      <stop offset="1" stop-color="#fff" stop-opacity="0"/>
    </linearGradient>
    <clipPath id="stack-clip">
      <rect x="20" y="5" width="165" height="140"/>
    </clipPath>
  </defs>

  <!-- W=155 H=28 R=8. Spacing=28. -->

  <!-- Block 1: Event (gold) — no notch, tab. y=10 -->
  <g class="pulse-b1" transform="translate(25, 10)">
    <path transform="translate(1,1)" fill="#8e722a"
      d="m 0,0 m 0,8 a 8 8 0 0,1 8,-8 h 147 V 28 h -125 l -6,4 -3,0 -6,-4 h -7 a 8 8 0 0,1 -8,-8 z"/>
    <path fill="#b18e35" stroke="none"
      d="m 0,0 m 0,8 a 8 8 0 0,1 8,-8 h 147 V 28 h -125 l -6,4 -3,0 -6,-4 h -7 a 8 8 0 0,1 -8,-8 z"/>
    <path fill="none" stroke="#c8b072" stroke-width="1"
      d="m 0.5,7.5 a 7.5 7.5 0 0,1 7.5,-7 H 155 M 0.5,20 V 8"/>
    <text class="bt" x="14" y="18">when Screen1 .Initialize</text>
  </g>

  <!-- Block 2: Setter (dark green) with value — y=10+28=38 -->
  <g class="pulse-b2" transform="translate(25, 38)">
    <path transform="translate(1,1)" fill="#1e5236"
      d="m 0,0 m 0,8 a 8 8 0 0,1 8,-8 h 7 l 6,4 3,0 6,-4 h 90 v 5 c 0,10 -8,-8 -8,7.5 s 8,-2.5 8,7.5 v 1 V 28 h -90 l -6,4 -3,0 -6,-4 h -7 a 8 8 0 0,1 -8,-8 z"/>
    <path fill="#266643" stroke="none"
      d="m 0,0 m 0,8 a 8 8 0 0,1 8,-8 h 7 l 6,4 3,0 6,-4 h 90 v 5 c 0,10 -8,-8 -8,7.5 s 8,-2.5 8,7.5 v 1 V 28 h -90 l -6,4 -3,0 -6,-4 h -7 a 8 8 0 0,1 -8,-8 z"/>
    <path fill="none" stroke="#6d9980" stroke-width="1"
      d="m 0.5,7.5 a 7.5 7.5 0 0,1 7.5,-7 H 15 l 6,4 3,0 6,-4 H 120 M 0.5,20 V 8"/>
    <text class="bt" x="10" y="18">set Label1 .Text  to</text>
    <g transform="translate(112, 0)">
      <path transform="translate(1,1)" fill="#8f244b"
        d="m 8,0 h 42 V 28 h -42 H 8 V 20 c 0,-10 -8,8 -8,-7.5 s 8,2.5 8,-7.5 z"/>
      <path fill="#b32d5e" stroke="none"
        d="m 8,0 h 42 V 28 h -42 H 8 V 20 c 0,-10 -8,8 -8,-7.5 s 8,2.5 8,-7.5 z"/>
      <path fill="none" stroke="#ca6c8e" stroke-width="1"
        d="m 8.5,0.5 H 49"/>
      <text class="bt" x="14" y="18" font-size="10">"Hello!"</text>
    </g>
  </g>

  <!-- Block 3: Method (purple) — y=38+28=66 -->
  <g class="pulse-b3" transform="translate(25, 66)">
    <path transform="translate(1,1)" fill="#63426a"
      d="m 0,0 m 0,8 a 8 8 0 0,1 8,-8 h 7 l 6,4 3,0 6,-4 h 125 V 28 h -125 l -6,4 -3,0 -6,-4 h -7 a 8 8 0 0,1 -8,-8 z"/>
    <path fill="#7c5385" stroke="none"
      d="m 0,0 m 0,8 a 8 8 0 0,1 8,-8 h 7 l 6,4 3,0 6,-4 h 125 V 28 h -125 l -6,4 -3,0 -6,-4 h -7 a 8 8 0 0,1 -8,-8 z"/>
    <path fill="none" stroke="#a387aa" stroke-width="1"
      d="m 0.5,7.5 a 7.5 7.5 0 0,1 7.5,-7 H 15 l 6,4 3,0 6,-4 H 155 M 0.5,20 V 8"/>
    <text class="bt" x="38" y="18">call Sound1 .Play</text>
  </g>

  <!-- Block 4: Method (purple) — notch, no tab. y=66+28=94 -->
  <g class="pulse-b4" transform="translate(25, 94)">
    <path transform="translate(1,1)" fill="#63426a"
      d="m 0,0 m 0,8 a 8 8 0 0,1 8,-8 h 7 l 6,4 3,0 6,-4 h 125 V 28 h -147 a 8 8 0 0,1 -8,-8 z"/>
    <path fill="#7c5385" stroke="none"
      d="m 0,0 m 0,8 a 8 8 0 0,1 8,-8 h 7 l 6,4 3,0 6,-4 h 125 V 28 h -147 a 8 8 0 0,1 -8,-8 z"/>
    <path fill="none" stroke="#a387aa" stroke-width="1"
      d="m 0.5,7.5 a 7.5 7.5 0 0,1 7.5,-7 H 15 l 6,4 3,0 6,-4 H 155 M 0.5,18 V 8"/>
    <text class="bt" x="38" y="18">call Notifier1 .ShowAlert</text>
  </g>

  <!-- Shimmer sweep -->
  <g clip-path="url(#stack-clip)">
    <rect class="pulse-shimmer" x="20" y="5" width="60" height="140" fill="url(#shimmerGrad)" opacity="0.3"/>
  </g>
</svg>
