<!-- <?xml version="1.0" encoding="utf-8"?> -->
<!-- Generator: Adobe Illustrator 27.5.0, SVG Export Plug-In . SVG Version: 6.00 Build 0)  -->
<svg xmlns="http://www.w3.org/2000/svg" xmlns:xlink="http://www.w3.org/1999/xlink" version="1.1" x="0px" y="0px" style="enable-background:new 0 0 2000 3000;" xml:space="preserve" viewBox="468 396.5 1064 2147">
<g id="PhoneMockUp">
		<g>
			<path style="fill:#333343;" d="M1515.373,736h-2.022V523.859c0-70.339-57.021-127.359-127.36-127.359H614.009     c-70.339,0-127.36,57.02-127.36,127.359V736h-2.022c-9.183,0-16.627,7.444-16.627,16.627v146.746     c0,9.183,7.444,16.627,16.627,16.627h2.022v35h-2.022c-9.183,0-16.627,7.445-16.627,16.627v146.746     c0,9.183,7.444,16.627,16.627,16.627h2.022v1285.14c0,70.339,57.021,127.36,127.36,127.36h771.981     c70.339,0,127.36-57.021,127.36-127.36V1006h2.022c9.183,0,16.627-7.444,16.627-16.627V752.627     C1532,743.444,1524.556,736,1515.373,736z"/>
			<path style="fill:#FFFFFF;" d="M1372.846,2512H627.154c-57.13,0-103.444-46.313-103.444-103.444V531.444     c0-57.13,46.313-103.444,103.444-103.444h745.691c57.131,0,103.444,46.313,103.444,103.444v1877.112     C1476.29,2465.687,1429.977,2512,1372.846,2512z"/>
		</g>
</g>
</svg>
