<svg width="80" height="32" viewBox="0 0 80 32" fill="none" xmlns="http://www.w3.org/2000/svg">
<rect x="0.75" y="0.75" width="78.5" height="30.5" rx="3.25" stroke="#92257B" stroke-width="1.5"/>
<path d="M18.5002 23.9977C18.5002 23.9977 18.4998 15.5023 18.5 15M18.5002 23.9977L21.5002 20.5691M18.5002 23.9977L15.5002 20.5691M15.5002 17L15.5 8.0022M15.5 8.0022L18.5 11.4308M15.5 8.0022L12.5 11.4308" stroke="#92257B" stroke-width="1.5" stroke-linecap="round" stroke-linejoin="round"/>
<path d="M38.7285 18.9062C38.7285 18.5742 38.6764 18.2812 38.5723 18.0273C38.4746 17.7669 38.2988 17.5326 38.0449 17.3242C37.7975 17.1159 37.4525 16.9173 37.0098 16.7285C36.5736 16.5397 36.0202 16.3477 35.3496 16.1523C34.6465 15.944 34.0117 15.7129 33.4453 15.459C32.8789 15.1986 32.3939 14.9023 31.9902 14.5703C31.5866 14.2383 31.2773 13.8574 31.0625 13.4277C30.8477 12.998 30.7402 12.5065 30.7402 11.9531C30.7402 11.3997 30.8542 10.8887 31.082 10.4199C31.3099 9.95117 31.6354 9.54427 32.0586 9.19922C32.4883 8.84766 32.9993 8.57422 33.5918 8.37891C34.1842 8.18359 34.8451 8.08594 35.5742 8.08594C36.6419 8.08594 37.5469 8.29102 38.2891 8.70117C39.0378 9.10482 39.6074 9.63542 39.998 10.293C40.3887 10.944 40.584 11.6406 40.584 12.3828H38.709C38.709 11.849 38.5951 11.377 38.3672 10.9668C38.1393 10.5501 37.7943 10.2246 37.332 9.99023C36.8698 9.74935 36.2839 9.62891 35.5742 9.62891C34.9036 9.62891 34.3503 9.72982 33.9141 9.93164C33.4779 10.1335 33.1523 10.4069 32.9375 10.752C32.7292 11.097 32.625 11.4909 32.625 11.9336C32.625 12.2331 32.6868 12.5065 32.8105 12.7539C32.9408 12.9948 33.1393 13.2194 33.4062 13.4277C33.6797 13.6361 34.0247 13.8281 34.4414 14.0039C34.8646 14.1797 35.3691 14.349 35.9551 14.5117C36.7624 14.7396 37.459 14.9935 38.0449 15.2734C38.6309 15.5534 39.1126 15.8691 39.4902 16.2207C39.8743 16.5658 40.1576 16.9596 40.3398 17.4023C40.5286 17.8385 40.623 18.3333 40.623 18.8867C40.623 19.4661 40.5059 19.9902 40.2715 20.459C40.0371 20.9277 39.7018 21.3281 39.2656 21.6602C38.8294 21.9922 38.3053 22.2493 37.6934 22.4316C37.0879 22.6074 36.4108 22.6953 35.6621 22.6953C35.0046 22.6953 34.3568 22.6042 33.7188 22.4219C33.0872 22.2396 32.5111 21.9661 31.9902 21.6016C31.4759 21.237 31.0625 20.7878 30.75 20.2539C30.444 19.7135 30.291 19.0885 30.291 18.3789H32.166C32.166 18.8672 32.2604 19.2871 32.4492 19.6387C32.638 19.9837 32.8952 20.2702 33.2207 20.498C33.5527 20.7259 33.9271 20.8952 34.3438 21.0059C34.7669 21.11 35.2064 21.1621 35.6621 21.1621C36.3197 21.1621 36.8763 21.071 37.332 20.8887C37.7878 20.7064 38.1328 20.446 38.3672 20.1074C38.6081 19.7689 38.7285 19.3685 38.7285 18.9062ZM42.2734 17.334V17.1094C42.2734 16.3477 42.3841 15.6413 42.6055 14.9902C42.8268 14.3327 43.1458 13.763 43.5625 13.2812C43.9792 12.793 44.4837 12.4154 45.0762 12.1484C45.6686 11.875 46.3327 11.7383 47.0684 11.7383C47.8105 11.7383 48.4779 11.875 49.0703 12.1484C49.6693 12.4154 50.1771 12.793 50.5938 13.2812C51.0169 13.763 51.3392 14.3327 51.5605 14.9902C51.7819 15.6413 51.8926 16.3477 51.8926 17.1094V17.334C51.8926 18.0957 51.7819 18.8021 51.5605 19.4531C51.3392 20.1042 51.0169 20.6738 50.5938 21.1621C50.1771 21.6439 49.6725 22.0215 49.0801 22.2949C48.4941 22.5618 47.8301 22.6953 47.0879 22.6953C46.3457 22.6953 45.6784 22.5618 45.0859 22.2949C44.4935 22.0215 43.9857 21.6439 43.5625 21.1621C43.1458 20.6738 42.8268 20.1042 42.6055 19.4531C42.3841 18.8021 42.2734 18.0957 42.2734 17.334ZM44.0801 17.1094V17.334C44.0801 17.8613 44.1419 18.3594 44.2656 18.8281C44.3893 19.2904 44.5749 19.7005 44.8223 20.0586C45.0762 20.4167 45.3919 20.6999 45.7695 20.9082C46.1471 21.11 46.5866 21.2109 47.0879 21.2109C47.5827 21.2109 48.0156 21.11 48.3867 20.9082C48.7643 20.6999 49.0768 20.4167 49.3242 20.0586C49.5716 19.7005 49.7572 19.2904 49.8809 18.8281C50.0111 18.3594 50.0762 17.8613 50.0762 17.334V17.1094C50.0762 16.5885 50.0111 16.097 49.8809 15.6348C49.7572 15.166 49.5684 14.7526 49.3145 14.3945C49.0671 14.0299 48.7546 13.7435 48.377 13.5352C48.0059 13.3268 47.5697 13.2227 47.0684 13.2227C46.5736 13.2227 46.1374 13.3268 45.7598 13.5352C45.3887 13.7435 45.0762 14.0299 44.8223 14.3945C44.5749 14.7526 44.3893 15.166 44.2656 15.6348C44.1419 16.097 44.0801 16.5885 44.0801 17.1094ZM55.9648 13.5938V22.5H54.1582V11.9336H55.916L55.9648 13.5938ZM59.2656 11.875L59.2559 13.5547C59.1061 13.5221 58.9629 13.5026 58.8262 13.4961C58.696 13.4831 58.5462 13.4766 58.377 13.4766C57.9603 13.4766 57.5924 13.5417 57.2734 13.6719C56.9544 13.8021 56.6842 13.9844 56.4629 14.2188C56.2415 14.4531 56.0658 14.7331 55.9355 15.0586C55.8118 15.3776 55.7305 15.7292 55.6914 16.1133L55.1836 16.4062C55.1836 15.7682 55.2454 15.1693 55.3691 14.6094C55.4993 14.0495 55.6979 13.5547 55.9648 13.125C56.2318 12.6888 56.5703 12.3503 56.9805 12.1094C57.3971 11.862 57.8919 11.7383 58.4648 11.7383C58.5951 11.7383 58.7448 11.7546 58.9141 11.7871C59.0833 11.8132 59.2005 11.8424 59.2656 11.875ZM65.8477 11.9336V13.3203H60.1348V11.9336H65.8477ZM62.0684 9.36523H63.875V19.8828C63.875 20.2409 63.9303 20.5111 64.041 20.6934C64.1517 20.8757 64.2949 20.9961 64.4707 21.0547C64.6465 21.1133 64.8353 21.1426 65.0371 21.1426C65.1868 21.1426 65.3431 21.1296 65.5059 21.1035C65.6751 21.071 65.8021 21.0449 65.8867 21.0254L65.8965 22.5C65.7533 22.5456 65.5645 22.5879 65.3301 22.627C65.1022 22.6725 64.8255 22.6953 64.5 22.6953C64.0573 22.6953 63.6504 22.6074 63.2793 22.4316C62.9082 22.2559 62.612 21.9629 62.3906 21.5527C62.1758 21.1361 62.0684 20.5762 62.0684 19.873V9.36523Z" fill="#92257B"/>
</svg>
