<svg height="48" width="48" xmlns="http://www.w3.org/2000/svg">
    <g transform="translate(24, 24) scale(0.2, 0.2)">
        <g transform="scale(7.5, 7.5)">
            <path d="M -7.0,-7.0 l 14.0,0.0 c 0.0,0.0 0.0,0.0 0.0,0.0 l 0.0,14.0 c 0.0,0.0 0.0,0.0 0.0,0.0 l -14.0,0.0 c 0.0,0.0 0.0,0.0 0.0,0.0 l 0.0,-14.0 c 0.0,0.0 0.0,0.0 0.0,0.0 Z M 7.0,-9.0 c 0.0,0.0 -14.0,0.0 -14.0,0.0 c -1.1044921875,0.0 -2.0,0.8955078125 -2.0,2.0 c 0.0,0.0 0.0,14.0 0.0,14.0 c 0.0,1.1044921875 0.8955078125,2.0 2.0,2.0 c 0.0,0.0 14.0,0.0 14.0,0.0 c 1.1044921875,0.0 2.0,-0.8955078125 2.0,-2.0 c 0.0,0.0 0.0,-14.0 0.0,-14.0 c 0.0,-1.1044921875 -0.8955078125,-2.0 -2.0,-2.0 c 0.0,0.0 0.0,0.0 0.0,0.0 Z" fill="#000000" fill-opacity="1.0"/>
        </g>
    </g>
</svg>
