<?xml version="1.0" encoding="UTF-8" standalone="no"?>
<!-- Created with Inkscape (http://www.inkscape.org/) -->

<svg
   xmlns:dc="http://purl.org/dc/elements/1.1/"
   xmlns:cc="http://creativecommons.org/ns#"
   xmlns:rdf="http://www.w3.org/1999/02/22-rdf-syntax-ns#"
   xmlns:svg="http://www.w3.org/2000/svg"
   xmlns="http://www.w3.org/2000/svg"
   xmlns:sodipodi="http://sodipodi.sourceforge.net/DTD/sodipodi-0.dtd"
   xmlns:inkscape="http://www.inkscape.org/namespaces/inkscape"
   width="400"
   height="400"
   id="svg2"
   version="1.1"
   inkscape:version="0.48.2 r9819"
   sodipodi:docname="map.svg"
   inkscape:export-filename="/Users/fraser/Documents/Google/blockly/demos/maze/map.png"
   inkscape:export-xdpi="90"
   inkscape:export-ydpi="90">
  <defs
     id="defs4" />
  <sodipodi:namedview
     id="base"
     pagecolor="#ffffff"
     bordercolor="#666666"
     borderopacity="1.0"
     inkscape:pageopacity="0.0"
     inkscape:pageshadow="2"
     inkscape:zoom="1.1845434"
     inkscape:cx="199.9992"
     inkscape:cy="199.9992"
     inkscape:document-units="px"
     inkscape:current-layer="layer1"
     showgrid="true"
     inkscape:snap-grids="true"
     inkscape:window-width="733"
     inkscape:window-height="693"
     inkscape:window-x="912"
     inkscape:window-y="272"
     inkscape:window-maximized="0"
     inkscape:snap-global="true"
     inkscape:snap-to-guides="true">
    <inkscape:grid
       type="xygrid"
       id="grid2985"
       units="px"
       empspacing="3"
       visible="true"
       enabled="true"
       snapvisiblegridlinesonly="true"
       spacingx="16.6666px"
       spacingy="16.6666px"
       dotted="false" />
  </sodipodi:namedview>
  <metadata
     id="metadata7">
    <rdf:RDF>
      <cc:Work
         rdf:about="">
        <dc:format>image/svg+xml</dc:format>
        <dc:type
           rdf:resource="http://purl.org/dc/dcmitype/StillImage" />
        <dc:title />
      </cc:Work>
    </rdf:RDF>
  </metadata>
  <g
     inkscape:label="Layer 1"
     inkscape:groupmode="layer"
     id="layer1"
     transform="translate(0,-652.36218)">
    <rect
       style="fill:#f1eee7;fill-opacity:1;stroke:none;stroke-opacity:1"
       id="rect3757"
       width="399.99841"
       height="399.99841"
       x="0"
       y="0.0016"
       transform="translate(0,652.36218)" />
    <path
       style="fill:#fff882;fill-opacity:1;stroke:#c8beae;stroke-opacity:1"
       d="m 66.6664,333.3336 166.666,0 c 16.6666,0 16.6666,-16.6666 0,-16.6666 l -99.9996,0 0,-83.333 183.3326,0 0,99.9996 c 0,16.6666 16.6666,16.6666 16.6666,0 l 0,-99.9996 c 0,-16.6666 0,-16.6666 -16.6666,-16.6666 l -83.333,0 0,-83.333 83.333,0 c 16.6666,0 16.6666,0 16.6666,-16.6666 l 0,-49.9998 c 0,-16.6666 -16.6666,-16.6666 -16.6666,0 l 0,49.9998 -83.333,0 0,-49.9998 c 0,-16.6666 -16.6666,-16.6666 -16.6666,0 l 0,149.9994 -133.3328,0 0,-83.333 33.3332,0 c 16.6666,0 16.6666,0 16.6666,-16.6666 l 0,-33.3332 c 0,-16.6666 0,-16.6666 -16.6666,-16.6666 l -33.3332,0 c -16.6666,0 -16.6666,0 -16.6666,16.6666 l 0,133.3328 c 0,16.6666 0,16.6666 16.6666,16.6666 l 33.3332,0 0,83.333 -49.9998,0 c -16.6666,0 -16.6666,16.6666 0,16.6666 z"
       id="path2987"
       inkscape:connector-curvature="0"
       transform="translate(0,652.36218)"
       sodipodi:nodetypes="ccccccccccccccccccccccccccccccccccc" />
    <rect
       style="fill:#f1eee7;fill-opacity:1;stroke:#c8beae;stroke-opacity:1"
       id="rect3759"
       width="33.333199"
       height="33.333199"
       x="83.333"
       y="83.334602"
       transform="translate(0,652.36218)" />
    <g
       id="g3808">
      <path
         transform="translate(0,652.36218)"
         inkscape:connector-curvature="0"
         id="path3775"
         d="m 349.9986,0.0016 0,399.9984"
         style="fill:#f1eee7;fill-opacity:1;stroke:#c8beae;stroke-opacity:1" />
      <path
         transform="translate(0,652.36218)"
         inkscape:connector-curvature="0"
         id="path3777"
         d="m 299.9988,400 0,-399.9984"
         style="fill:#f1eee7;fill-opacity:1;stroke:#c8beae;stroke-opacity:1" />
      <path
         transform="translate(0,652.36218)"
         inkscape:connector-curvature="0"
         id="path3779"
         d="m 249.999,0.0016 0,399.9984"
         style="fill:#f1eee7;fill-opacity:1;stroke:#c8beae;stroke-opacity:1" />
      <path
         transform="translate(0,652.36218)"
         inkscape:connector-curvature="0"
         id="path3781"
         d="m 199.9992,400 0,-399.9984"
         style="fill:#f1eee7;fill-opacity:1;stroke:#c8beae;stroke-opacity:1" />
      <path
         transform="translate(0,652.36218)"
         inkscape:connector-curvature="0"
         id="path3783"
         d="m 149.9994,0.0016 0,399.9984"
         style="fill:#f1eee7;fill-opacity:1;stroke:#c8beae;stroke-opacity:1" />
      <path
         transform="translate(0,652.36218)"
         inkscape:connector-curvature="0"
         id="path3785"
         d="m 99.9996,400 0,-399.9984"
         style="fill:#f1eee7;fill-opacity:1;stroke:#c8beae;stroke-opacity:1" />
      <path
         transform="translate(0,652.36218)"
         inkscape:connector-curvature="0"
         id="path3787"
         d="m 49.9998,0.0016 0,399.9984"
         style="fill:#f1eee7;fill-opacity:1;stroke:#c8beae;stroke-opacity:1" />
      <path
         transform="translate(0,652.36218)"
         inkscape:connector-curvature="0"
         id="path3789"
         d="M 0,0.0016 0,400"
         style="fill:#f1eee7;fill-opacity:1;stroke:#c8beae;stroke-opacity:1" />
      <path
         transform="translate(0,652.36218)"
         inkscape:connector-curvature="0"
         id="path3791"
         d="m 399.9984,0.0016 0,399.9984"
         style="fill:#f1eee7;fill-opacity:1;stroke:#c8beae;stroke-opacity:1" />
    </g>
    <g
       id="g3797">
      <path
         transform="translate(0,652.36218)"
         inkscape:connector-curvature="0"
         id="path3761"
         d="m 0,50.0014 399.9984,0"
         style="fill:#f1eee7;fill-opacity:1;stroke:#c8beae;stroke-opacity:1" />
      <path
         transform="translate(0,652.36218)"
         inkscape:connector-curvature="0"
         id="path3763"
         d="m 0,100.0012 399.9984,0"
         style="fill:#f1eee7;fill-opacity:1;stroke:#c8beae;stroke-opacity:1" />
      <path
         transform="translate(0,652.36218)"
         inkscape:connector-curvature="0"
         id="path3765"
         d="m 0,150.001 399.9984,0"
         style="fill:#f1eee7;fill-opacity:1;stroke:#c8beae;stroke-opacity:1" />
      <path
         transform="translate(0,652.36218)"
         inkscape:connector-curvature="0"
         id="path3767"
         d="m 0,200.0008 399.9984,0"
         style="fill:#f1eee7;fill-opacity:1;stroke:#c8beae;stroke-opacity:1" />
      <path
         transform="translate(0,652.36218)"
         inkscape:connector-curvature="0"
         id="path3769"
         d="m 0,250.0006 399.9984,0"
         style="fill:#f1eee7;fill-opacity:1;stroke:#c8beae;stroke-opacity:1" />
      <path
         transform="translate(0,652.36218)"
         inkscape:connector-curvature="0"
         id="path3771"
         d="m 0,300.0004 399.9984,0"
         style="fill:#f1eee7;fill-opacity:1;stroke:#c8beae;stroke-opacity:1" />
      <path
         transform="translate(0,652.36218)"
         inkscape:connector-curvature="0"
         id="path3773"
         d="m 0,350.0002 399.9984,0"
         style="fill:#f1eee7;fill-opacity:1;stroke:#c8beae;stroke-opacity:1" />
      <path
         transform="translate(0,652.36218)"
         inkscape:connector-curvature="0"
         id="path3793"
         d="m 0,0.0016 399.9984,0"
         style="fill:#f1eee7;fill-opacity:1;stroke:#c8beae;stroke-opacity:1" />
      <path
         transform="translate(0,652.36218)"
         inkscape:connector-curvature="0"
         id="path3795"
         d="m 0,400 399.9984,0"
         style="fill:#f1eee7;fill-opacity:1;stroke:#c8beae;stroke-opacity:1" />
    </g>
  </g>
</svg>
