<svg width="29" height="29" viewBox="0 0 29 29" fill="none" xmlns="http://www.w3.org/2000/svg">
<path d="M18.8914 24.3753C17.7048 24.8499 16.4122 25.1105 15.0595 25.1105C13.7068 25.1105 12.4141 24.8499 11.2275 24.3753C11.2275 24.3753 11.2275 27.4685 11.5743 28.0579C11.9211 28.6474 18.1978 28.6474 18.5446 28.0579C18.8914 27.4685 18.8914 24.3753 18.8914 24.3753Z" fill="#B76AA6"/>
<path d="M25.5149 24.5211C26.0987 24.5211 28.997 19.2158 29 18.6263C29.003 18.0369 25.4684 15.507 25.4684 15.507C25.1804 18.612 23.5738 21.3278 21.223 23.0717C21.223 23.0717 24.931 24.5211 25.5149 24.5211Z" fill="#B76AA6"/>
<path d="M29 10.3737C29.003 9.78425 25.9337 4.62476 25.5149 4.47899C25.096 4.33322 21.1353 5.86399 21.1353 5.86399C23.49 7.57321 25.1165 10.2496 25.4511 13.3211C25.4511 13.3211 28.997 10.9632 29 10.3737Z" fill="#B76AA6"/>
<path d="M11.2275 4.62476C12.4141 4.15018 13.7068 3.8895 15.0595 3.8895C16.4122 3.8895 17.7048 4.15018 18.8914 4.62476C18.8914 4.62476 18.8914 1.53163 18.5446 0.942129C18.1978 0.352624 11.9211 0.352625 11.5743 0.942129C11.2275 1.53163 11.2275 4.62476 11.2275 4.62476Z" fill="#B76AA6"/>
<path fill-rule="evenodd" clip-rule="evenodd" d="M15.0595 3.8895C13.7068 3.8895 12.4141 4.15018 11.2275 4.62476C10.4105 4.95155 9.6437 5.37977 8.94231 5.89412C6.60991 7.60457 5.0005 10.2676 4.66789 13.3211C4.62573 13.7082 4.60409 14.1015 4.60409 14.5C4.60409 14.8985 4.62573 15.2919 4.6679 15.679C4.99461 18.6782 6.55314 21.3007 8.81868 23.0138C9.55327 23.5693 10.3622 24.0292 11.2275 24.3753C12.4141 24.8499 13.7068 25.1105 15.0595 25.1105C16.4122 25.1105 17.7048 24.8499 18.8914 24.3753C19.7265 24.0413 20.5091 23.6013 21.223 23.0717C23.5738 21.3278 25.1804 18.612 25.4684 15.507C25.4991 15.1755 25.5149 14.8396 25.5149 14.5C25.5149 14.1015 25.4932 13.7082 25.4511 13.3211C25.1165 10.2496 23.49 7.57321 21.1353 5.86399C20.4452 5.36303 19.6925 4.94515 18.8914 4.62476C17.7048 4.15018 16.4122 3.8895 15.0595 3.8895ZM9.83178 14.5C9.83178 17.7556 11.8515 19.8053 15.0595 19.8053C18.2674 19.8053 20.2872 17.7556 20.2872 14.5C20.2872 11.2444 18.2674 9.19476 15.0595 9.19476C11.8515 9.19476 9.83178 11.2444 9.83178 14.5Z" fill="#B76AA6"/>
<path d="M4.56042 4.30696C3.9329 4.13494 0.447593 9.44019 1.07529 10.2017L4.66789 13.3211C5.0005 10.2676 6.60991 7.60457 8.94231 5.89412L4.56042 4.30696Z" fill="#B76AA6"/>
<path d="M1.07529 18.4543C1.02862 18.8718 3.9329 24.177 4.56042 24.3491L8.81868 23.0138C6.55314 21.3007 4.99461 18.6782 4.6679 15.679C4.6679 15.679 1.12196 18.0369 1.07529 18.4543Z" fill="#B76AA6"/>
<path d="M11.2275 4.62476C12.4141 4.15018 13.7068 3.8895 15.0595 3.8895C16.4122 3.8895 17.7048 4.15018 18.8914 4.62476M11.2275 4.62476C11.2275 4.62476 11.2275 1.53163 11.5743 0.942129C11.9211 0.352625 18.1978 0.352624 18.5446 0.942129C18.8914 1.53163 18.8914 4.62476 18.8914 4.62476M11.2275 4.62476C10.4105 4.95155 9.6437 5.37977 8.94231 5.89412M18.8914 4.62476C19.6925 4.94515 20.4452 5.36303 21.1353 5.86399M18.8914 24.3753C17.7048 24.8499 16.4122 25.1105 15.0595 25.1105C13.7068 25.1105 12.4141 24.8499 11.2275 24.3753M18.8914 24.3753C18.8914 24.3753 18.8914 27.4685 18.5446 28.0579C18.1978 28.6474 11.9211 28.6474 11.5743 28.0579C11.2275 27.4685 11.2275 24.3753 11.2275 24.3753M18.8914 24.3753C19.7265 24.0413 20.5091 23.6013 21.223 23.0717M11.2275 24.3753C10.3622 24.0292 9.55327 23.5693 8.81868 23.0138M25.4511 13.3211C25.4932 13.7082 25.5149 14.1015 25.5149 14.5C25.5149 14.8396 25.4991 15.1755 25.4684 15.507M25.4511 13.3211C25.4511 13.3211 28.997 10.9632 29 10.3737C29.003 9.78425 25.9337 4.62476 25.5149 4.47899C25.096 4.33322 21.1353 5.86399 21.1353 5.86399M25.4511 13.3211C25.1165 10.2496 23.49 7.57321 21.1353 5.86399M21.223 23.0717C21.223 23.0717 24.931 24.5211 25.5149 24.5211C26.0987 24.5211 28.997 19.2158 29 18.6263C29.003 18.0369 25.4684 15.507 25.4684 15.507M21.223 23.0717C23.5738 21.3278 25.1804 18.612 25.4684 15.507M8.81868 23.0138L4.56042 24.3491C3.9329 24.177 1.02862 18.8718 1.07529 18.4543C1.12196 18.0369 4.6679 15.679 4.6679 15.679M8.81868 23.0138C6.55314 21.3007 4.99461 18.6782 4.6679 15.679M4.6679 15.679C4.62573 15.2919 4.60409 14.8985 4.60409 14.5C4.60409 14.1015 4.62573 13.7082 4.66789 13.3211M4.66789 13.3211L1.07529 10.2017C0.447593 9.44019 3.9329 4.13494 4.56042 4.30696L8.94231 5.89412M4.66789 13.3211C5.0005 10.2676 6.60991 7.60457 8.94231 5.89412M15.0595 19.8053C11.8515 19.8053 9.83178 17.7556 9.83178 14.5C9.83178 11.2444 11.8515 9.19476 15.0595 9.19476C18.2674 9.19476 20.2872 11.2444 20.2872 14.5C20.2872 17.7556 18.2674 19.8053 15.0595 19.8053Z" stroke="#B76AA6"/>
</svg>
